<svg width="23" height="23" viewBox="0 0 23 23" fill="none" xmlns="http://www.w3.org/2000/svg">
<path d="M16.1447 18.2059H6.8532L4.95697 10.4066H18.0409L16.1447 18.2059ZM7.1974 17.7689H15.8026L17.4865 10.8415H5.51347L7.1974 17.7689Z" fill="#363F5F"/>
<path d="M16.4663 16.1797C16.3446 16.1797 16.2478 16.0808 16.2478 15.9613C16.2478 15.9015 16.2704 15.8479 16.3096 15.8087C16.3488 15.7675 16.4044 15.7407 16.4663 15.7407C16.5879 15.7407 16.6847 15.8397 16.6847 15.9592C16.6847 16.0808 16.5858 16.1797 16.4663 16.1797Z" fill="#363F5F"/>
<path d="M5.59592 12.3234C5.47431 12.3234 5.37744 12.2265 5.37744 12.107V12.1049C5.37744 11.9853 5.47431 11.8864 5.59592 11.8864C5.71546 11.8864 5.8144 11.9853 5.8144 12.1049C5.8144 12.2265 5.71546 12.3234 5.59592 12.3234Z" fill="#363F5F"/>
<path d="M17.0558 10.8415C16.9671 10.8415 16.8847 10.7879 16.8517 10.7013C16.188 8.93497 14.702 7.61379 12.8737 7.16241C12.7563 7.13355 12.6862 7.01607 12.715 6.89859C12.7439 6.7811 12.8614 6.71102 12.9789 6.73988C14.9452 7.22424 16.5467 8.64641 17.2598 10.5468C17.3031 10.6601 17.2454 10.7859 17.132 10.8291C17.1073 10.8374 17.0825 10.8415 17.0558 10.8415Z" fill="#363F5F"/>
<path d="M5.94222 10.8415C5.91749 10.8415 5.89069 10.8374 5.86596 10.8291C5.7526 10.7858 5.69695 10.6601 5.73817 10.5467C6.542 8.41142 8.44442 6.90268 10.7034 6.61C10.8229 6.59557 10.9322 6.68008 10.9487 6.79962C10.9631 6.91917 10.8786 7.02841 10.759 7.04284C8.66083 7.3149 6.89446 8.71646 6.14627 10.7013C6.11329 10.7879 6.03085 10.8415 5.94222 10.8415Z" fill="#363F5F"/>
<path d="M17.4041 12.3234C17.2824 12.3234 17.1856 12.2265 17.1856 12.107V12.1049C17.1856 11.9853 17.2824 11.8864 17.4041 11.8864C17.5236 11.8864 17.6205 11.9853 17.6205 12.1049C17.6205 12.2265 17.5236 12.3234 17.4041 12.3234Z" fill="#363F5F"/>
<path d="M11.8287 8.20534C11.1032 8.20534 10.5117 7.61379 10.5117 6.88828C10.5117 6.16071 11.1032 5.57123 11.8287 5.57123C12.5563 5.57123 13.1458 6.16071 13.1458 6.88828C13.1458 7.61379 12.5563 8.20534 11.8287 8.20534ZM11.8287 6.00612C11.3444 6.00612 10.9486 6.40186 10.9486 6.88828C10.9486 7.37264 11.3444 7.76838 11.8287 7.76838C12.3152 7.76838 12.7109 7.37264 12.7109 6.88828C12.7109 6.40186 12.3152 6.00612 11.8287 6.00612Z" fill="#363F5F"/>
<path d="M11.8287 6.00609C11.7092 6.00609 11.6103 5.90922 11.6103 5.78761V5.23936C11.6103 4.51178 12.2018 3.9223 12.9273 3.9223C13.0489 3.9223 13.1458 4.01917 13.1458 4.14078C13.1458 4.26033 13.0489 4.3572 12.9273 4.3572C12.443 4.3572 12.0472 4.75293 12.0472 5.23936V5.78761C12.0472 5.90922 11.9503 6.00609 11.8287 6.00609Z" fill="#363F5F"/>
<path d="M11.499 17.5463C11.3794 17.5463 11.2805 17.4474 11.2805 17.3278V11.2826C11.2805 11.163 11.3794 11.0662 11.499 11.0662C11.6206 11.0662 11.7174 11.163 11.7174 11.2826V17.3278C11.7174 17.4474 11.6206 17.5463 11.499 17.5463Z" fill="#363F5F"/>
<path d="M13.0386 17.5463C13.0304 17.5463 13.0221 17.5463 13.0139 17.5443C12.8943 17.5319 12.8078 17.4247 12.8222 17.3052L13.4797 11.2599C13.4941 11.1404 13.6013 11.0538 13.7208 11.0662C13.8404 11.0806 13.9269 11.1878 13.9146 11.3073L13.255 17.3505C13.2427 17.4639 13.1478 17.5463 13.0386 17.5463Z" fill="#363F5F"/>
<path d="M14.7967 17.5463C14.7864 17.5463 14.7761 17.5442 14.7658 17.5442C14.6463 17.5257 14.5638 17.4165 14.5803 17.2969L15.4604 11.2517C15.4769 11.1321 15.5882 11.0497 15.7077 11.0682C15.8273 11.0847 15.9097 11.196 15.8912 11.3156L15.0131 17.3587C14.9967 17.468 14.9039 17.5463 14.7967 17.5463Z" fill="#363F5F"/>
<path d="M9.96138 17.5463C9.85008 17.5463 9.75527 17.4639 9.74496 17.3505L9.0854 11.3073C9.07098 11.1878 9.15754 11.0806 9.27709 11.0662C9.39663 11.0538 9.50587 11.1404 9.51824 11.2599L10.1778 17.3052C10.1902 17.4247 10.1036 17.5319 9.98405 17.5443C9.97581 17.5463 9.96756 17.5463 9.96138 17.5463Z" fill="#363F5F"/>
<path d="M8.20326 17.5463C8.09608 17.5463 8.00333 17.468 7.98684 17.3587L7.10674 11.3156C7.09025 11.196 7.1727 11.0847 7.29224 11.0682C7.41179 11.0497 7.52103 11.1321 7.53958 11.2517L8.41761 17.2969C8.43616 17.4165 8.35372 17.5257 8.23417 17.5442C8.22387 17.5442 8.21356 17.5463 8.20326 17.5463Z" fill="#363F5F"/>
<path d="M11.499 23C5.15897 23 0 17.841 0 11.501C0 5.15897 5.15897 0 11.499 0C17.841 0 23 5.15897 23 11.501C23 17.841 17.841 23 11.499 23ZM11.499 0.436957C5.39806 0.436957 0.434896 5.40013 0.434896 11.501C0.434896 17.6019 5.39806 22.5651 11.499 22.5651C17.5999 22.5651 22.563 17.6019 22.563 11.501C22.563 5.40013 17.5999 0.436957 11.499 0.436957Z" fill="#363F5F"/>
</svg>
