<svg width="113" height="73" viewBox="0 0 113 73" fill="none" xmlns="http://www.w3.org/2000/svg">
<path d="M1.20335 30.6588C1.15458 30.659 1.10749 30.641 1.07136 30.6082C1.03523 30.5754 1.01267 30.5303 1.00813 30.4818L0.000258567 18.36C-0.0023009 18.3108 0.0142186 18.2626 0.0463679 18.2254C0.0785172 18.1882 0.123808 18.1648 0.172777 18.1602C0.223855 18.1564 0.274373 18.1729 0.31344 18.206C0.352506 18.2391 0.376992 18.2863 0.381617 18.3373L1.3895 30.4591C1.39328 30.5101 1.37684 30.5607 1.34372 30.5997C1.31059 30.6388 1.26345 30.6633 1.21244 30.6679L1.20335 30.6588Z" fill="#E73F5D"/>
<path d="M1.80268 37.8591C1.7539 37.8593 1.70681 37.8412 1.67068 37.8085C1.63455 37.7757 1.612 37.7306 1.60746 37.682L1.30328 34.0137C1.30079 33.9883 1.30343 33.9626 1.31104 33.9383C1.31866 33.9139 1.33109 33.8913 1.3476 33.8718C1.36412 33.8523 1.38438 33.8364 1.40718 33.8249C1.42998 33.8134 1.45486 33.8066 1.48034 33.8049C1.50575 33.8024 1.53141 33.805 1.55578 33.8126C1.58016 33.8202 1.60275 33.8327 1.62223 33.8492C1.64171 33.8657 1.65767 33.886 1.66917 33.9088C1.68067 33.9316 1.68747 33.9564 1.68918 33.9819L1.99336 37.6502C1.99714 37.7013 1.9807 37.7518 1.94758 37.7909C1.91445 37.83 1.86731 37.8545 1.8163 37.8591H1.80268Z" fill="#E73F5D"/>
<path d="M103.939 72.3541H10.1971C9.01609 72.331 7.88454 71.8755 7.01686 71.0739C6.14917 70.2723 5.60562 69.1803 5.48916 68.0048L0.209142 4.54016C0.152725 3.98582 0.214229 3.42583 0.389617 2.89696C0.565005 2.36808 0.850308 1.8823 1.22678 1.47153C1.60325 1.06075 2.06237 0.734278 2.57399 0.513553C3.0856 0.292828 3.63812 0.182848 4.19526 0.190836H97.9326C99.1142 0.213857 100.246 0.669204 101.115 1.4707C101.983 2.2722 102.528 3.36425 102.645 4.54016L107.925 67.9957C107.982 68.5506 107.921 69.1113 107.746 69.641C107.571 70.1706 107.286 70.6573 106.91 71.0689C106.533 71.4805 106.074 71.8078 105.562 72.0294C105.05 72.2509 104.497 72.3615 103.939 72.3541Z" fill="white"/>
<path d="M103.938 72.5356H10.1965C8.96935 72.5157 7.79255 72.0445 6.89067 71.2122C5.98879 70.3798 5.425 69.2445 5.30689 68.0229L0.0268753 4.56278C-0.0264439 3.98377 0.0417191 3.4 0.227 2.84885C0.412281 2.2977 0.710599 1.7913 1.10286 1.36208C1.49313 0.930019 1.97032 0.585328 2.50314 0.350605C3.03596 0.115883 3.61238 -0.00356962 4.1946 8.123e-05H97.932C99.1642 0.0196393 100.346 0.494094 101.249 1.33219C102.153 2.17028 102.714 3.31283 102.826 4.54008L108.102 67.9956C108.16 68.5743 108.095 69.1588 107.912 69.7108C107.728 70.2627 107.43 70.7697 107.037 71.1984C106.644 71.627 106.165 71.9678 105.631 72.1982C105.097 72.4287 104.52 72.5437 103.938 72.5356ZM4.1946 0.381439C3.66169 0.372784 3.133 0.477276 2.64346 0.688015C2.15391 0.898755 1.71464 1.21095 1.35465 1.60397C0.994659 1.997 0.722137 2.46193 0.555083 2.96805C0.388028 3.47417 0.330241 4.00998 0.385536 4.54008L5.66556 67.9911C5.77786 69.1235 6.30241 70.1752 7.13948 70.9461C7.97654 71.7171 9.06773 72.1535 10.2056 72.1724H103.938C104.47 72.1803 104.997 72.0756 105.486 71.8651C105.974 71.6546 106.412 71.3431 106.772 70.9512C107.131 70.5593 107.403 70.0957 107.571 69.591C107.738 69.0863 107.797 68.5519 107.743 68.0229L102.463 4.56278C102.352 3.42997 101.827 2.37774 100.99 1.60661C100.153 0.835491 99.061 0.399393 97.9229 0.381439H4.1946Z" fill="#E73F5D"/>
<path d="M97.9326 0.199856H4.1952C3.63891 0.19201 3.08723 0.301774 2.57631 0.521957C2.06539 0.74214 1.60674 1.06777 1.23041 1.47753C0.854086 1.88729 0.56857 2.37193 0.392563 2.8997C0.216556 3.42748 0.154031 3.98648 0.209082 4.5401H102.645C102.526 3.36582 101.98 2.27597 101.112 1.47633C100.244 0.676695 99.1127 0.222625 97.9326 0.199856Z" fill="#E73F5D"/>
<path d="M6.38806 2.37439C6.40094 2.49403 6.38825 2.61505 6.35081 2.72942C6.31338 2.84378 6.25206 2.94888 6.17092 3.03774C6.08978 3.12661 5.99068 3.19721 5.88018 3.24487C5.76968 3.29252 5.65032 3.31615 5.53 3.31417C5.27495 3.30879 5.0307 3.21023 4.84334 3.03709C4.65599 2.86396 4.5385 2.62822 4.51304 2.37439C4.5009 2.25489 4.51411 2.13418 4.55182 2.02013C4.58953 1.90609 4.65088 1.80129 4.73187 1.71259C4.81286 1.62388 4.91167 1.55327 5.02182 1.50537C5.13197 1.45747 5.25099 1.43336 5.3711 1.43462C5.62674 1.43802 5.87208 1.5359 6.05985 1.70942C6.24762 1.88294 6.36453 2.11981 6.38806 2.37439Z" fill="white"/>
<path d="M10.2017 2.37439C10.2146 2.49403 10.2019 2.61505 10.1644 2.72942C10.127 2.84378 10.0657 2.94888 9.98456 3.03774C9.90342 3.12661 9.80431 3.19721 9.69381 3.24487C9.58332 3.29252 9.46395 3.31615 9.34363 3.31417C9.09176 3.30446 8.8519 3.20396 8.66832 3.03123C8.48475 2.85851 8.36985 2.62521 8.34483 2.37439C8.33268 2.25489 8.3459 2.13418 8.38361 2.02013C8.42132 1.90609 8.48267 1.80129 8.56366 1.71259C8.64465 1.62388 8.74345 1.55327 8.85361 1.50537C8.96376 1.45747 9.08278 1.43336 9.20289 1.43462C9.45537 1.44242 9.69629 1.54227 9.88025 1.71537C10.0642 1.88846 10.1785 2.12285 10.2017 2.37439Z" fill="white"/>
<path d="M14.0153 2.37439C14.0281 2.49403 14.0155 2.61505 13.978 2.72942C13.9406 2.84378 13.8793 2.94888 13.7981 3.03774C13.717 3.12661 13.6179 3.19721 13.5074 3.24487C13.3969 3.29252 13.2775 3.31615 13.1572 3.31417C12.9022 3.30879 12.6579 3.21023 12.4705 3.03709C12.2832 2.86396 12.1657 2.62822 12.1402 2.37439C12.1281 2.25489 12.1413 2.13418 12.179 2.02013C12.2167 1.90609 12.2781 1.80129 12.3591 1.71259C12.4401 1.62388 12.5389 1.55327 12.649 1.50537C12.7592 1.45747 12.8782 1.43336 12.9983 1.43462C13.2539 1.43802 13.4993 1.5359 13.6871 1.70942C13.8748 1.88294 13.9917 2.11981 14.0153 2.37439Z" fill="white"/>
<path d="M95.8033 64.0367H16.9707C16.0317 64.0191 15.1318 63.6577 14.4415 63.021C13.7512 62.3842 13.3184 61.5163 13.2252 60.5818L9.52058 16.344C9.47631 15.9028 9.52593 15.4573 9.66618 15.0366C9.80643 14.616 10.0341 14.2298 10.3343 13.9035C10.6345 13.5771 11.0004 13.318 11.4079 13.1432C11.8154 12.9683 12.2552 12.8818 12.6986 12.8891H91.5448C92.4838 12.9067 93.3837 13.2681 94.074 13.9049C94.7643 14.5417 95.1971 15.4095 95.2903 16.344L98.9722 60.6045C99.013 61.0431 98.9611 61.4854 98.8198 61.9027C98.6786 62.32 98.4511 62.7029 98.1523 63.0265C97.8535 63.3502 97.4899 63.6074 97.0852 63.7814C96.6805 63.9555 96.2438 64.0425 95.8033 64.0367Z" fill="#F0F0F0"/>
<path opacity="0.1" d="M71.4145 20.6162L46.9893 50.0264C46.2216 50.9499 45.7049 52.0556 45.489 53.237C45.2732 54.4184 45.3655 55.6354 45.757 56.7707C46.1485 57.906 46.826 58.9213 47.7242 59.7185C48.6224 60.5157 49.7109 61.0679 50.8846 61.3219L90.5188 69.8889C91.7584 70.1577 93.0479 70.0841 94.2488 69.6758C95.4497 69.2676 96.5169 68.5401 97.3358 67.5714C98.1547 66.6027 98.6945 65.4294 98.8972 64.1772C99.0999 62.9251 98.9579 61.6414 98.4865 60.4638L83.2911 22.4822C82.8422 21.3552 82.1076 20.3644 81.1596 19.6075C80.2116 18.8506 79.0829 18.3535 77.8845 18.1652C76.6861 17.977 75.4593 18.1039 74.3248 18.5337C73.1904 18.9635 72.1874 19.6812 71.4145 20.6162Z" fill="#263238"/>
<path opacity="0.1" d="M17.0435 24.7386L8.5355 47.6702C8.2807 48.3703 8.20731 49.1235 8.32216 49.8596C8.43701 50.5958 8.73637 51.2908 9.19233 51.8801C9.6483 52.4693 10.246 52.9335 10.9298 53.2293C11.6135 53.5252 12.3611 53.6432 13.1027 53.5722L37.9502 51.1342C38.7409 51.057 39.496 50.7677 40.136 50.297C40.776 49.8262 41.277 49.1915 41.5862 48.4596C41.8954 47.7278 42.0012 46.9261 41.8927 46.1391C41.7841 45.3521 41.4651 44.609 40.9693 43.9882L24.6253 23.5128C24.137 22.9034 23.4957 22.4344 22.7669 22.1538C22.0382 21.8732 21.248 21.7911 20.4771 21.9157C19.7061 22.0403 18.9821 22.3673 18.3789 22.8633C17.7756 23.3592 17.3148 24.0064 17.0435 24.7386Z" fill="#263238"/>
<path d="M79.8407 13.2114L57.0045 46.3534C56.2913 47.3886 55.8556 48.5895 55.7393 49.8412C55.6229 51.0929 55.8298 52.3536 56.34 53.5025C56.8502 54.6514 57.6468 55.6502 58.6534 56.4032C59.6601 57.1562 60.8431 57.6383 62.0893 57.8033L104.066 63.392C105.386 63.5678 106.73 63.3815 107.952 62.8528C109.174 62.3241 110.23 61.4731 111.006 60.3907C111.782 59.3083 112.249 58.0352 112.357 56.7078C112.466 55.3804 112.211 54.0485 111.621 52.8547L92.4801 14.1103C91.912 12.9625 91.0536 11.9832 89.9902 11.2695C88.9268 10.5558 87.6953 10.1326 86.4178 10.0417C85.1403 9.95085 83.8613 10.1956 82.7076 10.7516C81.5539 11.3076 80.5656 12.1556 79.8407 13.2114Z" fill="#E73F5D"/>
<path d="M63.0836 54.8432C62.3255 54.7401 61.6046 54.4511 60.9852 54.002C60.3657 53.5529 59.867 52.9575 59.5333 52.269C59.1893 51.6181 59.0276 50.8864 59.0651 50.1512C59.1027 49.416 59.3382 48.7046 59.7467 48.0922L82.6419 14.8503C83.0559 14.2573 83.6284 13.793 84.2941 13.5103C84.9597 13.2277 85.6915 13.1382 86.4056 13.2522C87.164 13.3545 87.8852 13.6432 88.5048 14.0924C89.1243 14.5416 89.6229 15.1374 89.9559 15.8264L109.133 54.6661C109.477 55.317 109.639 56.0487 109.601 56.7839C109.563 57.5191 109.328 58.2305 108.919 58.8429C108.506 59.4371 107.934 59.9027 107.268 60.1862C106.603 60.4697 105.87 60.5596 105.156 60.4455L63.0836 54.8432Z" fill="white"/>
<path d="M84.4579 25.0019L87.132 25.356C87.968 25.474 88.7313 25.8955 89.2765 26.5402C89.8216 27.185 90.1103 28.0078 90.0875 28.8518L89.9059 32.3386C89.9015 32.465 89.8878 32.5909 89.865 32.7154L87.9628 43.2255C87.8266 43.9499 87.413 44.5924 86.8101 45.0164C86.2072 45.4404 85.4626 45.6123 84.7348 45.4955C83.9624 45.3857 83.2499 45.0177 82.7132 44.4513C82.1766 43.885 81.8474 43.1537 81.7793 42.3765L81.012 31.5168C81.003 31.3914 81.003 31.2654 81.012 31.14L81.1891 27.6487C81.2082 27.2521 81.3109 26.864 81.4905 26.5099C81.67 26.1557 81.9224 25.8434 82.231 25.5936C82.5396 25.3437 82.8975 25.1618 83.2812 25.0599C83.665 24.9579 84.066 24.9382 84.4579 25.0019ZM84.2445 48.4102L84.9709 48.5055C85.7191 48.6111 86.4023 48.9883 86.8904 49.5651C87.3785 50.142 87.6374 50.8782 87.6177 51.6336C87.6018 51.9898 87.5107 52.3386 87.3504 52.6571C87.1902 52.9756 86.9644 53.2566 86.6878 53.4817C86.4113 53.7068 86.0903 53.8708 85.7459 53.9631C85.4015 54.0554 85.0415 54.0738 84.6894 54.0171L83.963 53.9172C83.2152 53.8126 82.532 53.4364 82.0439 52.8603C81.5557 52.2842 81.2967 51.5485 81.3162 50.7937C81.3315 50.4372 81.4221 50.0881 81.5821 49.7692C81.7422 49.4503 81.968 49.169 82.2447 48.9438C82.5214 48.7186 82.8427 48.5545 83.1874 48.4626C83.5321 48.3706 83.8924 48.3527 84.2445 48.4102Z" fill="#E73F5D"/>
<path d="M25.8238 18.2782L19.5541 42.0541C19.365 42.7766 19.3623 43.5353 19.5464 44.259C19.7305 44.9828 20.0952 45.648 20.6065 46.1924C21.1177 46.7368 21.7588 47.1425 22.4696 47.3716C23.1804 47.6006 23.9377 47.6456 24.6706 47.5022L48.9914 42.7578C49.7631 42.6039 50.4795 42.2465 51.0666 41.7226C51.6536 41.1987 52.0899 40.5273 52.3302 39.7781C52.5706 39.0288 52.6062 38.2289 52.4334 37.4613C52.2607 36.6937 51.8858 35.9862 51.3477 35.4121L33.3148 16.3668C32.7739 15.7921 32.089 15.3728 31.3312 15.1525C30.5734 14.9321 29.7705 14.9188 29.0058 15.1139C28.2411 15.309 27.5427 15.7054 26.9831 16.2619C26.4235 16.8184 26.0232 17.5146 25.8238 18.2782Z" fill="#E73F5D"/>
<path d="M24.6206 45.5863C24.1741 45.6671 23.7143 45.6337 23.2841 45.4893C22.8539 45.3448 22.4672 45.0939 22.1599 44.76C21.8429 44.4383 21.6138 44.0406 21.4946 43.6049C21.3753 43.1693 21.37 42.7104 21.4789 42.2721L27.7623 18.4325C27.8713 18.016 28.0964 17.639 28.4115 17.3456C28.7267 17.0522 29.1187 16.8544 29.542 16.7754C29.9889 16.6956 30.4488 16.7299 30.8789 16.8751C31.3091 17.0203 31.6956 17.2718 32.0027 17.6062L50.0991 36.6743C50.4165 36.9957 50.6462 37.3933 50.7663 37.8288C50.8863 38.2644 50.8926 38.7235 50.7846 39.1622C50.6749 39.5779 50.4495 39.9539 50.1344 40.2465C49.8193 40.539 49.4277 40.7361 49.005 40.8147L24.6206 45.5863Z" fill="white"/>
<path d="M30.7224 24.0303L32.2705 23.7262C32.7704 23.6455 33.2824 23.7525 33.7082 24.0265C34.1339 24.3006 34.4433 24.7224 34.5769 25.2107L35.1307 27.2855C35.1517 27.3617 35.1684 27.439 35.1807 27.5171L36.1659 34.0501C36.2426 34.49 36.1426 34.9423 35.8875 35.3088C35.6325 35.6752 35.243 35.9261 34.8039 36.0069C34.3434 36.0833 33.8706 35.9998 33.4642 35.7702C33.0578 35.5405 32.7423 35.1786 32.5702 34.7447L30.055 28.534C30.0245 28.4616 29.9987 28.3873 29.9778 28.3116L29.4058 26.2322C29.3314 26.0011 29.3072 25.7567 29.3348 25.5155C29.3623 25.2743 29.441 25.0417 29.5657 24.8333C29.6903 24.6249 29.8579 24.4454 30.0574 24.307C30.2569 24.1685 30.4836 24.0742 30.7224 24.0303ZM35.1035 37.7775L35.5257 37.6957C35.9735 37.6182 36.434 37.7113 36.8164 37.9568C37.1989 38.2022 37.4754 38.5821 37.5914 39.0214C37.6554 39.226 37.6755 39.4418 37.6505 39.6547C37.6255 39.8676 37.5559 40.0729 37.4462 40.2571C37.3366 40.4413 37.1893 40.6003 37.0141 40.7237C36.8388 40.8472 36.6395 40.9324 36.4292 40.9736L36.007 41.0553C35.5598 41.1331 35.0998 41.0406 34.7175 40.7961C34.3351 40.5515 34.0582 40.1727 33.9413 39.7342C33.8773 39.5293 33.8571 39.3133 33.8821 39.1001C33.9071 38.8869 33.9766 38.6813 34.0862 38.4968C34.1959 38.3122 34.3431 38.1528 34.5183 38.0289C34.6936 37.905 34.893 37.8193 35.1035 37.7775Z" fill="#E73F5D"/>
</svg>
