<svg width="22" height="21" viewBox="0 0 22 21" fill="none" xmlns="http://www.w3.org/2000/svg">
<path d="M13.4713 15.9885H8.11074C7.26102 15.9885 6.53551 15.3844 6.42116 14.5809L5.31909 6.78986H16.2629L15.1589 14.5809C15.0445 15.3844 14.319 15.9885 13.4713 15.9885ZM5.7962 7.18882L6.83518 14.5282C6.92192 15.1342 7.47 15.5915 8.11074 15.5915H13.4713C14.112 15.5915 14.6601 15.1342 14.7449 14.5282L15.7838 7.18882H5.7962Z" fill="#363F5F"/>
<path d="M14.528 17.4169H7.05207C6.11364 17.4169 5.34869 16.6867 5.34869 15.7909V15.5914H16.2314V15.7909C16.2314 16.6867 15.4684 17.4169 14.528 17.4169ZM5.78242 15.9885C5.88297 16.5719 6.41331 17.0179 7.05207 17.0179H14.528C15.1668 17.0179 15.6971 16.5719 15.7977 15.9885H5.78242Z" fill="#363F5F"/>
<path d="M15.4014 14.4435C15.2594 14.4435 15.1155 14.4341 14.9736 14.4172C14.8592 14.404 14.7784 14.3042 14.7922 14.1951C14.806 14.0859 14.9105 14.0088 15.0248 14.022C15.149 14.037 15.2772 14.0445 15.4014 14.0445C17.0712 14.0445 18.4316 12.7479 18.4316 11.1521C18.4316 9.72372 17.3157 8.49297 15.8371 8.28972C15.7247 8.27278 15.6439 8.17304 15.6616 8.06389C15.6774 7.95474 15.7838 7.87947 15.8982 7.89452C17.5799 8.12788 18.8476 9.528 18.8476 11.1521C18.8476 12.9662 17.3019 14.4435 15.4014 14.4435Z" fill="#363F5F"/>
<path d="M10.5416 6.47558C10.4253 6.47558 10.3326 6.38525 10.3326 6.2761C10.3326 5.97311 10.516 5.81503 10.6501 5.70024C10.7723 5.59485 10.8314 5.5384 10.8314 5.41984C10.8314 5.2994 10.7723 5.24294 10.6501 5.13944C10.516 5.02276 10.3326 4.86468 10.3326 4.5617C10.3326 4.25871 10.516 4.10063 10.6501 3.98584C10.7723 3.88233 10.8314 3.82588 10.8314 3.70544C10.8314 3.58688 10.7723 3.53042 10.6501 3.42692C10.516 3.31024 10.3326 3.15216 10.3326 2.85106C10.3326 2.54807 10.516 2.39 10.6501 2.2752C10.7723 2.16981 10.8314 2.11336 10.8314 1.9948C10.8314 1.88377 10.9241 1.79532 11.0404 1.79532C11.1548 1.79532 11.2474 1.88377 11.2474 1.9948C11.2474 2.29778 11.0641 2.45586 10.93 2.57066C10.8078 2.67416 10.7506 2.73062 10.7506 2.85106C10.7506 2.96962 10.8078 3.02607 10.93 3.12958C11.0641 3.24626 11.2474 3.40245 11.2474 3.70544C11.2474 4.00842 11.0641 4.1665 10.93 4.28129C10.8078 4.38668 10.7506 4.44125 10.7506 4.5617C10.7506 4.68214 10.8078 4.73859 10.93 4.8421C11.0641 4.95877 11.2474 5.11685 11.2474 5.41984C11.2474 5.72094 11.0641 5.8809 10.93 5.99569C10.8078 6.0992 10.7506 6.15566 10.7506 6.2761C10.7506 6.38525 10.656 6.47558 10.5416 6.47558Z" fill="#363F5F"/>
<path d="M13.282 6.47558C13.1677 6.47558 13.073 6.38525 13.073 6.2761C13.073 5.97311 13.2583 5.81503 13.3924 5.70024C13.5127 5.59485 13.5718 5.5384 13.5718 5.41984C13.5718 5.2994 13.5127 5.24294 13.3924 5.13944C13.2583 5.02276 13.073 4.86468 13.073 4.5617C13.073 4.25871 13.2583 4.10063 13.3924 3.98584C13.5127 3.88233 13.5718 3.82588 13.5718 3.70544C13.5718 3.58688 13.5127 3.53042 13.3924 3.42692C13.2583 3.31024 13.073 3.15216 13.073 2.85106C13.073 2.54807 13.2583 2.39 13.3924 2.2752C13.5127 2.16981 13.5718 2.11336 13.5718 1.9948C13.5718 1.88377 13.6665 1.79532 13.7808 1.79532C13.8951 1.79532 13.9898 1.88377 13.9898 1.9948C13.9898 2.29778 13.8045 2.45586 13.6704 2.57066C13.5501 2.67416 13.491 2.73062 13.491 2.85106C13.491 2.96962 13.5501 3.02607 13.6704 3.12958C13.8045 3.24626 13.9898 3.40245 13.9898 3.70544C13.9898 4.00842 13.8045 4.1665 13.6704 4.28129C13.5501 4.38668 13.491 4.44125 13.491 4.5617C13.491 4.68214 13.5501 4.73859 13.6704 4.8421C13.8064 4.95877 13.9898 5.11685 13.9898 5.41984C13.9898 5.72094 13.8045 5.8809 13.6704 5.99569C13.5501 6.0992 13.491 6.15566 13.491 6.2761C13.491 6.38525 13.3983 6.47558 13.282 6.47558Z" fill="#363F5F"/>
<path d="M7.30245 6.47558C7.18614 6.47558 7.09348 6.38525 7.09348 6.2761C7.09348 5.97311 7.27682 5.81503 7.41089 5.70024C7.53312 5.59485 7.59226 5.5384 7.59226 5.41984C7.59226 5.2994 7.53312 5.24294 7.41089 5.13944C7.27682 5.02276 7.09348 4.86468 7.09348 4.5617C7.09348 4.25871 7.27682 4.10063 7.41089 3.98584C7.53312 3.88233 7.59226 3.82588 7.59226 3.70544C7.59226 3.58688 7.53312 3.53042 7.41089 3.42692C7.27682 3.31024 7.09348 3.15216 7.09348 2.85106C7.09348 2.54807 7.27682 2.39 7.41089 2.27332C7.53312 2.16981 7.59226 2.11336 7.59226 1.9948C7.59226 1.88377 7.68492 1.79532 7.79927 1.79532C7.91559 1.79532 8.00825 1.88377 8.00825 1.9948C8.00825 2.29778 7.8249 2.45586 7.69084 2.57066C7.56861 2.67416 7.51143 2.73062 7.51143 2.85106C7.51143 2.96962 7.56861 3.02607 7.69084 3.12958C7.8249 3.24437 8.00825 3.40245 8.00825 3.70544C8.00825 4.00842 7.8249 4.1665 7.69084 4.28129C7.56861 4.38668 7.51143 4.44125 7.51143 4.5617C7.51143 4.68214 7.56861 4.73859 7.69084 4.8421C7.8249 4.95877 8.00825 5.11685 8.00825 5.41984C8.00825 5.72094 7.8249 5.8809 7.69084 5.99569C7.56861 6.0992 7.51143 6.15566 7.51143 6.2761C7.51143 6.38525 7.4168 6.47558 7.30245 6.47558Z" fill="#363F5F"/>
<path d="M11.001 21C4.93467 21 0 16.2896 0 10.4991C0 4.71037 4.93467 0 11.001 0C17.0653 0 22 4.71037 22 10.4991C22 16.2896 17.0653 21 11.001 21ZM11.001 0.397079C5.16534 0.397079 0.417959 4.92867 0.417959 10.4991C0.417959 16.0695 5.16534 20.601 11.001 20.601C16.8347 20.601 21.582 16.0695 21.582 10.4991C21.582 4.92867 16.8347 0.397079 11.001 0.397079Z" fill="#363F5F"/>
</svg>
