<svg width="19" height="18" viewBox="0 0 19 18" fill="none" xmlns="http://www.w3.org/2000/svg">
<ellipse cx="9.5" cy="9" rx="9.5" ry="9" fill="#D9D9D9" fill-opacity="0.992157"/>
<path fill-rule="evenodd" clip-rule="evenodd" d="M5.24877 5.66003C4.88425 5.24513 4.92509 4.61328 5.33999 4.24877C5.7549 3.88425 6.38674 3.92509 6.75126 4.33999L9.61514 7.59972L12.479 4.33999C12.8435 3.92509 13.4754 3.88425 13.8903 4.24877C14.3052 4.61328 14.346 5.24513 13.9815 5.66003L10.9463 9.11482L13.9815 12.5696C14.346 12.9845 14.3051 13.6163 13.8902 13.9808C13.4753 14.3453 12.8435 14.3045 12.479 13.8896L9.61514 10.6299L6.75131 13.8896C6.38679 14.3045 5.75495 14.3453 5.34004 13.9808C4.92514 13.6163 4.8843 12.9845 5.24882 12.5696L8.28402 9.11482L5.24877 5.66003Z" fill="#626262"/>
</svg>
