<svg width="22" height="21" viewBox="0 0 22 21" fill="none" xmlns="http://www.w3.org/2000/svg">
<path d="M18.7451 12.1871C18.6603 12.1871 18.5795 12.1363 18.5479 12.0573C17.9801 10.6026 16.9766 9.35864 15.6419 8.4591C14.2796 7.54074 12.6748 7.05333 11.001 7.05333C9.32522 7.05333 7.72042 7.54074 6.35811 8.4591C5.02537 9.35864 4.0199 10.6026 3.45211 12.0573C3.41071 12.1608 3.29045 12.2116 3.18399 12.1739C3.07555 12.1363 3.02035 12.0215 3.05978 11.918C3.65912 10.388 4.71585 9.08012 6.11758 8.13541C7.55087 7.16624 9.23847 6.65625 11.001 6.65625C12.7615 6.65625 14.4511 7.16624 15.8844 8.13541C17.2861 9.08012 18.3429 10.388 18.9402 11.918C18.9797 12.0215 18.9245 12.1363 18.818 12.1739C18.7924 12.1834 18.7687 12.1871 18.7451 12.1871Z" fill="#363F5F"/>
<path d="M19.5238 12.1871H2.47619C2.35987 12.1871 2.26721 12.0968 2.26721 11.9876C2.26721 11.8766 2.35987 11.7881 2.47619 11.7881H19.5238C19.6401 11.7881 19.7328 11.8766 19.7328 11.9876C19.7328 12.0968 19.6401 12.1871 19.5238 12.1871Z" fill="#363F5F"/>
<path d="M10.0014 7.11166C9.91468 7.11166 9.83188 7.05897 9.80428 6.97428C9.76288 6.85384 9.74316 6.72964 9.74316 6.60543C9.74316 5.94301 10.307 5.40479 11.001 5.40479C11.693 5.40479 12.2588 5.94301 12.2588 6.60543C12.2588 6.72964 12.2371 6.85384 12.1957 6.97428C12.1602 7.07778 12.0439 7.13612 11.9335 7.10225C11.8251 7.06838 11.764 6.95546 11.7994 6.85196C11.827 6.77104 11.8408 6.68823 11.8408 6.60543C11.8408 6.1613 11.4643 5.80186 11.001 5.80186C10.5377 5.80186 10.1592 6.1613 10.1592 6.60543C10.1592 6.68823 10.173 6.77104 10.2006 6.85008C10.236 6.95546 10.1769 7.06838 10.0665 7.10225C10.0448 7.10789 10.0231 7.11166 10.0014 7.11166Z" fill="#363F5F"/>
<path d="M17.6883 13.1883H4.31168C3.61771 13.1883 3.05386 12.6501 3.05386 11.9876V11.7881H18.9461V11.9876C18.9461 12.6501 18.3823 13.1883 17.6883 13.1883ZM3.49745 12.1871C3.59011 12.5334 3.92132 12.7893 4.31168 12.7893H17.6883C18.0807 12.7893 18.4099 12.5334 18.5026 12.1871H3.49745Z" fill="#363F5F"/>
<path d="M11.001 21C4.93467 21 0 16.2896 0 10.5009C0 4.71037 4.93467 0 11.001 0C17.0653 0 22 4.71037 22 10.5009C22 16.2896 17.0653 21 11.001 21ZM11.001 0.39896C5.16534 0.39896 0.417959 4.93055 0.417959 10.5009C0.417959 16.0713 5.16534 20.6029 11.001 20.6029C16.8347 20.6029 21.582 16.0713 21.582 10.5009C21.582 4.93055 16.8347 0.39896 11.001 0.39896Z" fill="#363F5F"/>
</svg>
