<svg width="21" height="16" viewBox="0 0 21 16" fill="none" xmlns="http://www.w3.org/2000/svg">
<path d="M19.0909 0.470588C18.0314 0.141176 16.8668 0 15.75 0C13.8886 0 11.8841 0.376471 10.5 1.41176C9.11591 0.376471 7.11136 0 5.25 0C3.38864 0 1.38409 0.376471 0 1.41176V15.2C0 15.4353 0.238636 15.6706 0.477273 15.6706C0.572727 15.6706 0.620455 15.6235 0.715909 15.6235C2.00455 15.0118 3.86591 14.5882 5.25 14.5882C7.11136 14.5882 9.11591 14.9647 10.5 16C11.7886 15.2 14.1273 14.5882 15.75 14.5882C17.325 14.5882 18.9477 14.8706 20.2841 15.5765C20.3795 15.6235 20.4273 15.6235 20.5227 15.6235C20.7614 15.6235 21 15.3882 21 15.1529V1.41176C20.4273 0.988235 19.8068 0.705882 19.0909 0.470588ZM19.0909 13.1765C18.0409 12.8471 16.8955 12.7059 15.75 12.7059C14.1273 12.7059 11.7886 13.3176 10.5 14.1176V3.29412C11.7886 2.49412 14.1273 1.88235 15.75 1.88235C16.8955 1.88235 18.0409 2.02353 19.0909 2.35294V13.1765Z" fill="#003333"/>
</svg>
