<svg width="251" height="251" viewBox="0 0 251 251" fill="none" xmlns="http://www.w3.org/2000/svg">
<path d="M37.1479 96.3288L37.8457 97.388C43.689 106.344 53.9097 111.524 64.4517 110.515C65.8056 110.386 67.148 110.156 68.4677 109.828C78.0057 107.463 86.1331 99.9281 89.2957 90.5106C91.1581 84.9886 91.5246 78.6484 95.2494 74.1806C100.099 68.3624 108.643 67.9106 116.163 67.9005C123.683 67.8905 132.227 67.3985 137.051 61.5804C140.063 57.9208 140.906 52.8355 140.5 48.0816C139.42 35.5015 130.274 24.5177 118.914 19.2768C107.553 14.0359 94.401 13.9606 82.2677 16.822C65.2599 20.833 49.2712 30.8379 39.9591 45.7975C30.647 60.7571 28.8147 80.7819 37.1479 96.3288Z" fill="#F5F5F5" fill-opacity="0.15"/>
<path d="M211.371 90.2304C226.514 84.2137 233.911 67.0611 227.895 51.9188C221.878 36.7765 204.725 29.3788 189.583 35.3954C174.441 41.4121 167.043 58.5648 173.06 73.707C179.076 88.8493 196.229 96.247 211.371 90.2304Z" fill="#F5F5F5" fill-opacity="0.15"/>
<path d="M108.276 189.354C124.57 189.354 137.779 176.146 137.779 159.852C137.779 143.558 124.57 130.349 108.276 130.349C91.9825 130.349 78.7738 143.558 78.7738 159.852C78.7738 176.146 91.9825 189.354 108.276 189.354Z" fill="#F5F5F5" fill-opacity="0.15"/>
<path d="M227.762 211.523C227.762 211.593 181.975 211.653 125.505 211.653C69.035 211.653 23.2375 211.593 23.2375 211.523C23.2375 211.452 69.0149 211.392 125.505 211.392C181.995 211.392 227.762 211.447 227.762 211.523Z" fill="#263238"/>
<path d="M106.585 218.305L106.755 208.611C106.761 208.311 106.867 208.021 107.058 207.789C107.248 207.557 107.511 207.395 107.805 207.331C109.988 206.859 115.159 205.644 118.713 203.943C123.316 201.744 128.833 198.516 132.769 196.915C137.116 195.153 148.763 189.575 151.042 188.802C151.27 188.724 151.515 188.71 151.75 188.762L196.031 198.29C196.104 198.305 196.178 198.315 196.252 198.32C196.97 198.345 201.041 198.586 201.272 200.534C201.493 202.276 201.222 208.757 201.116 211.101C201.104 211.354 201.02 211.598 200.875 211.805C200.729 212.013 200.527 212.174 200.293 212.271C196.207 213.952 177.347 221.879 172.653 226.678C167.382 232.065 161.212 236.678 158.778 236.788C156.343 236.899 147.583 233.696 145.008 232.888C142.679 232.16 113.04 221.593 107.463 219.605C107.198 219.509 106.971 219.331 106.813 219.098C106.655 218.864 106.575 218.587 106.585 218.305Z" fill="#FDDAC8"/>
<path d="M201.302 200.514C201.302 200.514 186.744 207.13 180.293 209.916C173.843 212.702 169.174 217.391 166.413 220.247C163.652 223.104 162.292 225.016 157.728 225.142C153.165 225.267 139.38 219.751 132.252 216.864C125.38 214.088 110.837 209.068 107.473 207.913C107.393 207.887 107.307 207.879 107.223 207.892C107.139 207.904 107.06 207.936 106.99 207.985C106.921 208.033 106.864 208.098 106.824 208.173C106.784 208.247 106.762 208.331 106.76 208.415L106.725 210.258L106.57 219.254C106.57 219.254 142.448 232.049 145.018 232.858C147.588 233.666 156.348 236.874 158.788 236.758C161.227 236.643 167.392 232.034 172.663 226.648C177.934 221.262 201.086 211.919 201.086 211.919C201.086 211.919 201.553 202.652 201.302 200.514Z" fill="#663535"/>
<path d="M132.342 200.544C131.604 200.649 131.082 201.146 131.218 201.608C131.353 202.07 132.131 202.437 132.884 202.391C133.637 202.346 134.255 201.889 134.215 201.422C134.175 200.956 133.472 200.529 132.709 200.519" fill="#663535"/>
<path d="M176.975 205.971C176.242 206.076 175.72 206.573 175.856 207.035C175.991 207.497 176.764 207.863 177.522 207.818C178.28 207.773 178.893 207.316 178.848 206.849C178.802 206.382 178.11 205.961 177.342 205.945" fill="#663535"/>
<path d="M177.206 203.907C176.784 203.968 176.478 204.254 176.558 204.525C176.639 204.796 177.086 205.002 177.522 204.977C177.959 204.952 178.315 204.685 178.29 204.414C178.265 204.143 177.864 203.912 177.422 203.912" fill="#663535"/>
<path d="M167.919 211.914C167.492 211.974 167.191 212.261 167.271 212.532C167.352 212.803 167.799 213.009 168.235 212.978C168.672 212.948 169.023 212.692 168.998 212.421C168.973 212.15 168.572 211.919 168.135 211.919" fill="#663535"/>
<path d="M128.407 201.829C127.98 201.889 127.679 202.181 127.759 202.447C127.839 202.713 128.261 202.949 128.718 202.898C129.175 202.848 129.511 202.607 129.486 202.336C129.461 202.065 129.059 201.834 128.617 201.834" fill="#663535"/>
<path d="M107.473 207.918L107.734 207.994L108.482 208.24L111.354 209.208C113.864 210.057 117.443 211.297 121.896 212.878C124.109 213.671 126.534 214.55 129.124 215.524C131.715 216.497 134.446 217.637 137.342 218.767C140.239 219.896 143.286 221.066 146.484 222.175C148.08 222.734 149.715 223.263 151.388 223.761C153.074 224.284 154.798 224.677 156.544 224.936C156.761 224.97 156.981 224.987 157.201 224.986C157.422 224.986 157.638 225.016 157.859 224.986L158.522 224.951L159.179 224.876C160.047 224.772 160.894 224.535 161.689 224.173C163.26 223.44 164.44 222.165 165.605 220.93C167.807 218.523 170.199 216.297 172.758 214.274C175.092 212.458 177.644 210.94 180.354 209.756L187.382 206.628L197.567 202.11L200.343 200.895L201.071 200.584L201.317 200.484C201.317 200.484 201.242 200.529 201.081 200.609L200.368 200.941L197.612 202.201L187.422 206.824L180.394 209.982C177.706 211.17 175.177 212.688 172.864 214.5C170.32 216.521 167.941 218.741 165.75 221.141C164.591 222.356 163.391 223.681 161.759 224.444C160.946 224.814 160.081 225.06 159.194 225.172L158.522 225.242L157.849 225.282C157.628 225.282 157.397 225.282 157.171 225.282C156.944 225.283 156.718 225.267 156.493 225.232C154.733 224.967 152.994 224.571 151.293 224.048C149.619 223.546 147.981 223.013 146.378 222.451C143.175 221.337 140.128 220.162 137.232 219.023C134.335 217.883 131.614 216.738 129.029 215.765C126.444 214.791 124.009 213.892 121.815 213.089L111.318 209.339L108.467 208.335L107.724 208.064C107.558 207.958 107.473 207.918 107.473 207.918Z" fill="#263238"/>
<g opacity="0.2">
<path opacity="0.2" d="M120.555 203.014C126.278 206.181 132.397 209.444 138.928 209.083C143.948 208.802 148.592 206.387 153.135 204.204C161.129 200.342 169.388 197.056 177.849 194.369C171.323 192.954 165.043 191.513 158.476 190.203C156.468 189.801 152.954 189.048 151.709 188.732C151.388 188.693 151.061 188.749 150.771 188.893C149.4 189.48 144.35 191.679 142.739 192.407C129.566 198.375 128.276 199.053 120.565 203.004" fill="black"/>
</g>
<path d="M99.5968 166.318C99.4362 166.729 105.35 188.571 105.35 188.571C105.35 188.571 120.179 192.251 127.207 190.394C134.235 188.536 154.882 181.212 159.767 180.414C164.651 179.616 179.159 180.022 186.247 180.866C193.335 181.709 201.257 181.619 205.72 179.862L205.825 178.662L196.443 160.188C191.02 160.736 185.551 160.635 180.153 159.887C170.846 158.662 158.351 157.934 148.185 162.206C138.02 166.478 132.754 167.447 128.633 167.904C124.762 168.336 102.393 165.329 99.7023 165.113L99.5968 166.318Z" fill="#FFC100"/>
<path opacity="0.3" d="M99.5968 166.318C99.4362 166.729 105.35 188.571 105.35 188.571C105.35 188.571 120.179 192.251 127.207 190.394C134.235 188.536 154.882 181.212 159.767 180.414C164.651 179.616 179.159 180.022 186.247 180.866C193.335 181.709 201.257 181.619 205.72 179.862L205.825 178.662L196.443 160.188C191.02 160.736 185.551 160.635 180.153 159.887C170.846 158.662 158.351 157.934 148.185 162.206C138.02 166.478 132.754 167.447 128.633 167.904C124.762 168.336 102.393 165.329 99.7023 165.113L99.5968 166.318Z" fill="black"/>
<path d="M99.7023 165.123C99.5417 165.534 105.46 187.377 105.46 187.377C105.46 187.377 120.284 191.056 127.312 189.194C134.34 187.331 154.993 180.012 159.872 179.219C164.751 178.426 179.269 178.822 186.353 179.671C193.436 180.519 201.362 180.419 205.825 178.667L196.548 158.998C191.126 159.546 185.657 159.445 180.258 158.697C170.956 157.467 158.456 156.744 148.291 161.016C138.125 165.289 132.859 166.252 128.738 166.714C124.617 167.176 99.7023 165.123 99.7023 165.123Z" fill="#FFC100"/>
<path opacity="0.3" d="M205.82 178.672C201.357 180.419 193.235 180.439 186.147 179.591C179.058 178.742 164.561 178.346 159.666 179.139C154.772 179.932 134.139 187.246 127.111 189.118C120.083 190.991 105.701 187.547 105.701 187.547L105.35 188.551L103.221 180.615L103.482 179.992C108.281 179.536 113.11 179.499 117.915 179.882C125.214 180.539 131.695 182.085 135.57 181.061C139.446 180.037 145.535 178.551 148.622 176.754C151.709 174.957 158.898 172.206 166.278 172.658C173.657 173.11 177.452 173.858 183.526 174.284C189.6 174.711 201.438 171.955 202.522 171.659L205.82 178.672Z" fill="white"/>
<path opacity="0.3" d="M100.064 168.506L100.35 168.044C104.452 169.767 108.888 170.55 113.332 170.334C120.892 170.017 137.573 167.824 138.557 168.381C139.541 168.938 139.933 168.853 137.849 170.208C135.766 171.564 110.099 177.126 102.408 175.951L102.092 176.363L100.064 168.506Z" fill="white"/>
<path opacity="0.3" d="M198.145 162.387C198.145 162.387 190.328 166.011 169.942 164.134C169.942 164.134 156.825 163.632 149.767 167.618C142.709 171.604 133.537 174.54 132.197 175.223C130.856 175.906 127.679 176.729 130.078 177.281C132.478 177.833 143.201 174.676 146.77 172.578C150.339 170.479 152.638 169.807 155.374 168.943C158.11 168.08 165.836 167.939 174.219 168.908C182.603 169.877 193.707 170.63 196.528 169.224C199.349 167.819 200.474 167.332 200.474 167.332L198.145 162.387Z" fill="white"/>
<g opacity="0.8">
<path opacity="0.8" d="M151.147 160.695C151.147 160.695 151.117 160.725 151.042 160.766L150.716 160.946C150.424 161.107 149.998 161.333 149.435 161.614C148.311 162.166 146.669 162.934 144.571 163.732C142.116 164.666 139.6 165.431 137.041 166.021C133.903 166.733 130.714 167.198 127.503 167.412C121.674 167.722 115.829 167.573 110.023 166.965C107.795 166.759 106.007 166.559 104.752 166.423L103.322 166.252L102.95 166.202C102.907 166.199 102.865 166.189 102.825 166.172H102.95L103.327 166.197L104.762 166.323L110.038 166.779C114.491 167.131 120.676 167.603 127.483 167.151C130.679 166.938 133.854 166.481 136.981 165.786C139.537 165.21 142.052 164.468 144.511 163.562C146.604 162.789 148.256 162.056 149.39 161.519C149.958 161.257 150.394 161.047 150.69 160.901L151.032 160.74C151.068 160.719 151.107 160.704 151.147 160.695Z" fill="white"/>
</g>
<g opacity="0.8">
<path opacity="0.8" d="M160.093 159.32C160.093 159.395 158.687 159.48 156.965 159.721C155.244 159.962 153.863 160.248 153.843 160.173C154.837 159.803 155.875 159.563 156.93 159.46C157.974 159.273 159.037 159.226 160.093 159.32Z" fill="white"/>
</g>
<g opacity="0.8">
<path opacity="0.8" d="M190.414 160.961C190.414 161.032 184.892 160.665 178.08 160.143C171.267 159.621 165.76 159.139 165.771 159.059C165.781 158.978 171.293 159.355 178.1 159.882C184.907 160.409 190.419 160.891 190.414 160.961Z" fill="white"/>
</g>
<g opacity="0.8">
<path opacity="0.8" d="M106.73 185.359C106.635 185.181 106.557 184.994 106.499 184.801C106.364 184.44 106.183 183.913 105.967 183.255C105.53 181.945 104.963 180.123 104.371 178.095C103.779 176.066 103.302 174.219 102.975 172.874C102.81 172.206 102.684 171.659 102.604 171.282C102.55 171.087 102.517 170.887 102.503 170.685C102.594 170.867 102.662 171.059 102.704 171.257L103.151 172.829L104.622 178.019L106.128 183.2C106.309 183.822 106.459 184.349 106.58 184.771C106.655 184.96 106.706 185.157 106.73 185.359Z" fill="white"/>
</g>
<g opacity="0.3">
<path opacity="0.3" d="M102.433 165.996C106.108 170.58 105.721 178.044 110.566 181.353C112.9 182.959 115.902 183.15 118.738 183.1C128.317 182.932 137.742 180.665 146.348 176.458C152.121 173.632 157.543 169.932 163.737 168.215C175.896 164.852 188.767 169.656 201.387 169.134L197.186 159.822L102.433 165.996Z" fill="black"/>
</g>
<path d="M101.73 153.697C101.595 154.149 109.572 176.995 109.572 176.995C109.572 176.995 125.671 179.786 133.025 177.266C140.379 174.746 161.85 165.359 166.995 164.154C172.141 162.949 187.653 162.251 195.278 162.613C202.903 162.974 211.342 162.267 215.97 160.063V158.778L204.55 139.787C198.808 140.787 192.967 141.097 187.151 140.711C177.111 140.113 163.747 140.289 153.226 145.625C142.704 150.961 137.162 152.392 132.804 153.195C128.708 153.953 104.617 152.452 101.73 152.427V153.697Z" fill="#FFC100"/>
<path opacity="0.3" d="M101.73 153.697C101.595 154.149 109.572 176.995 109.572 176.995C109.572 176.995 125.671 179.786 133.025 177.266C140.379 174.746 161.85 165.359 166.995 164.154C172.141 162.949 187.653 162.251 195.278 162.613C202.903 162.974 211.342 162.267 215.97 160.063V158.778L204.55 139.787C198.808 140.787 192.967 141.097 187.151 140.711C177.111 140.113 163.747 140.289 153.226 145.625C142.704 150.961 137.162 152.392 132.804 153.195C128.708 153.953 104.617 152.452 101.73 152.427V153.697Z" fill="black"/>
<path d="M101.755 152.412C101.615 152.864 109.597 175.71 109.597 175.71C109.597 175.71 125.691 178.501 133.045 175.981C140.399 173.461 161.87 164.074 167.015 162.854C172.161 161.634 187.678 160.951 195.303 161.313C202.929 161.674 211.367 160.966 215.996 158.763L204.595 138.487C198.853 139.486 193.012 139.797 187.196 139.41C177.156 138.813 163.793 138.989 153.271 144.325C142.749 149.661 137.207 151.092 132.849 151.895C128.492 152.698 101.755 152.412 101.755 152.412Z" fill="#FFC100"/>
<path opacity="0.3" d="M215.996 158.763C211.372 160.966 202.708 161.604 195.082 161.242C187.457 160.881 171.945 161.564 166.8 162.784C161.654 164.003 140.194 173.396 132.824 175.916C125.455 178.436 109.868 175.876 109.868 175.876L109.572 176.995L106.69 168.672L106.921 167.989C112.005 167.135 117.153 166.726 122.307 166.764C130.149 166.915 137.182 168.065 141.233 166.679C145.284 165.294 151.674 163.24 154.837 161.082C157.999 158.923 165.449 155.449 173.361 155.364C181.272 155.279 185.369 155.791 191.879 155.781C198.39 155.771 210.805 151.93 211.959 151.534L215.996 158.763Z" fill="white"/>
<path opacity="0.3" d="M102.408 155.992L102.679 155.49C107.185 157.016 111.977 157.512 116.7 156.94C124.732 156.022 142.372 152.422 143.462 152.924C144.551 153.426 144.968 153.326 142.849 154.932C140.731 156.539 113.773 164.43 105.47 163.762L105.169 164.224L102.408 155.992Z" fill="white"/>
<path opacity="0.3" d="M206.558 141.976C206.558 141.976 198.501 146.438 176.609 145.992C176.609 145.992 162.578 146.448 155.354 151.243C148.13 156.037 138.552 159.877 137.187 160.705C135.821 161.534 132.468 162.638 135.088 163.065C137.709 163.491 148.888 159.28 152.538 156.77C156.187 154.26 158.562 153.366 161.433 152.252C164.305 151.137 172.517 150.389 181.513 150.771C190.509 151.152 202.432 151.122 205.338 149.405C208.245 147.688 209.404 147.086 209.404 147.086L206.558 141.976Z" fill="white"/>
<g opacity="0.8">
<path opacity="0.8" d="M156.298 143.763L156.187 143.843L155.851 144.059C155.555 144.25 155.113 144.526 154.536 144.867C153.381 145.545 151.684 146.489 149.516 147.498C146.969 148.681 144.344 149.687 141.659 150.51C138.375 151.507 135.018 152.247 131.619 152.723C124.366 153.727 117.719 153.662 112.94 153.582C110.546 153.537 108.613 153.461 107.277 153.406L105.736 153.336L105.335 153.311H105.199C105.244 153.303 105.29 153.303 105.335 153.311H105.736H107.277L112.945 153.401C117.719 153.436 124.356 153.471 131.584 152.467C134.982 151.997 138.338 151.267 141.624 150.284C144.303 149.474 146.926 148.489 149.476 147.337C151.654 146.333 153.356 145.434 154.526 144.782C155.108 144.461 155.56 144.2 155.866 144.019L156.212 143.823C156.253 143.778 156.293 143.758 156.298 143.763Z" fill="white"/>
</g>
<g opacity="0.8">
<path opacity="0.8" d="M165.73 141.609C165.73 141.685 164.224 141.88 162.427 142.267C160.63 142.653 159.159 143.07 159.134 143C161.233 142.148 163.466 141.678 165.73 141.609Z" fill="white"/>
</g>
<g opacity="0.8">
<path opacity="0.8" d="M198.2 141.062C198.2 141.132 192.281 141.157 184.982 141.117C177.683 141.077 171.769 140.987 171.769 140.911C171.769 140.836 177.683 140.816 184.987 140.856C192.291 140.896 198.2 140.972 198.2 141.062Z" fill="white"/>
</g>
<g opacity="0.8">
<path opacity="0.8" d="M110.801 173.461C110.682 173.281 110.584 173.087 110.51 172.884C110.345 172.507 110.109 171.96 109.828 171.272C109.26 169.907 108.512 168.009 107.734 165.891C106.956 163.772 106.299 161.84 105.842 160.429C105.616 159.726 105.44 159.154 105.34 158.757C105.268 158.555 105.216 158.347 105.184 158.135C105.287 158.324 105.371 158.522 105.435 158.727L106.032 160.369L107.995 165.801L110.003 171.207L110.611 172.849C110.694 173.046 110.758 173.251 110.801 173.461Z" fill="white"/>
</g>
<path d="M209.64 114.3C208.531 112.212 206.257 110.992 203.973 110.38C201.689 109.767 199.304 109.642 197.005 109.09C192.602 108.025 188.712 105.425 184.364 104.135C174.38 101.168 163.923 105.189 154.4 109.406C148.065 110.294 143.487 107.955 137.362 106.118C131.238 104.28 124.571 102.774 118.547 104.928C114.029 106.544 110.119 110.159 105.315 110.385C102.016 110.54 98.2012 109.18 95.7264 111.389C93.623 113.246 93.9342 116.765 95.5306 119.074C97.9603 122.588 102.463 124.024 106.715 124.446C110.967 124.867 115.309 124.496 119.476 125.5C129.31 127.89 136.243 137.352 146.082 139.692C153.612 141.479 161.453 138.748 168.446 135.425C175.439 132.101 182.326 128.08 190.002 127.071C193.094 126.665 196.237 126.76 199.329 126.358C202.421 125.957 205.579 124.993 207.813 122.844C210.047 120.696 211.101 117.056 209.64 114.3Z" fill="#FFC100"/>
<g opacity="0.8">
<path opacity="0.8" d="M209.64 114.3C208.531 112.212 206.257 110.992 203.973 110.38C201.689 109.767 199.304 109.642 197.005 109.09C192.602 108.025 188.712 105.425 184.364 104.135C174.38 101.168 163.923 105.189 154.4 109.406C148.065 110.294 143.487 107.955 137.362 106.118C131.238 104.28 124.571 102.774 118.547 104.928C114.029 106.544 110.119 110.159 105.315 110.385C102.016 110.54 98.2012 109.18 95.7264 111.389C93.623 113.246 93.9342 116.765 95.5306 119.074C97.9603 122.588 102.463 124.024 106.715 124.446C110.967 124.867 115.309 124.496 119.476 125.5C129.31 127.89 136.243 137.352 146.082 139.692C153.612 141.479 161.453 138.748 168.446 135.425C175.439 132.101 182.326 128.08 190.002 127.071C193.094 126.665 196.237 126.76 199.329 126.358C202.421 125.957 205.579 124.993 207.813 122.844C210.047 120.696 211.101 117.056 209.64 114.3Z" fill="white"/>
</g>
<path d="M170.916 120.666C168.9 116.956 165.875 113.893 162.191 111.83C158.507 109.768 154.314 108.79 150.098 109.009C142.829 109.511 136.007 113.964 132.448 120.289C131.989 121.109 131.867 122.076 132.109 122.984C132.351 123.892 132.937 124.67 133.743 125.154C144.034 131.273 157.964 132.498 168.652 127.352C169.872 126.765 171.162 126.007 171.624 124.742C172.086 123.477 171.579 121.926 170.916 120.666Z" fill="#FFC100"/>
<g opacity="0.3">
<path opacity="0.3" d="M163.938 123.141C163.068 123.103 162.199 123.233 161.378 123.522C155.953 124.94 150.201 124.396 145.138 121.986C143.913 121.394 142.578 120.425 142.628 119.064C142.727 118.402 142.966 117.769 143.331 117.207C143.702 116.643 143.84 115.958 143.718 115.294C143.527 114.657 142.668 114.215 142.161 114.647C140.62 115.4 138.391 117.383 137.262 118.663C136.132 119.943 135.555 121.881 136.333 123.407C136.86 124.451 137.909 125.129 138.954 125.651C143.893 128.13 149.626 128.296 155.153 128.412C158.351 128.477 161.775 128.482 164.435 126.7C165.103 126.248 165.755 125.575 165.715 124.772C165.675 123.969 164.797 123.256 163.938 123.141Z" fill="white"/>
</g>
<g opacity="0.8">
<path opacity="0.8" d="M157.277 136.358C156.127 139.566 143.627 137.438 138.02 133.783C133.547 130.871 130.123 126.389 125.259 124.2C120.922 122.242 115.987 122.352 111.248 121.891C106.509 121.429 100.244 120.982 97.3879 117.162C97.3879 117.162 96.1731 116.188 98.4572 115.992C100.741 115.796 99.4612 117.96 106.148 119.074C112.834 120.189 118.075 116.103 130.686 126.198C143.296 136.293 148.14 136.052 150.766 135.906C153.391 135.761 157.829 134.817 157.277 136.358Z" fill="white"/>
</g>
<g opacity="0.8">
<path opacity="0.8" d="M99.1199 111.946C98.4334 112.09 97.7786 112.357 97.1872 112.734C96.644 113.176 96.1863 113.714 95.8368 114.32C95.8067 114.32 95.8368 114.064 96.0176 113.703C96.2537 113.236 96.5978 112.831 97.0216 112.523C97.4482 112.214 97.9418 112.009 98.4623 111.926C98.6787 111.868 98.9074 111.875 99.1199 111.946Z" fill="white"/>
</g>
<g opacity="0.8">
<path opacity="0.8" d="M123.151 106.203C122.256 106.103 121.355 106.071 120.455 106.108C119.483 106.18 118.525 106.385 117.609 106.715C116.491 107.135 115.439 107.713 114.486 108.432C113.447 109.17 112.478 109.938 111.509 110.49C110.654 111.004 109.714 111.363 108.733 111.549C108.068 111.675 107.385 111.661 106.725 111.509C106.553 111.468 106.385 111.411 106.223 111.339C106.108 111.293 106.048 111.263 106.053 111.253C106.058 111.243 106.304 111.329 106.76 111.414C107.407 111.518 108.068 111.501 108.708 111.364C109.657 111.157 110.565 110.792 111.394 110.284C112.338 109.722 113.296 108.964 114.341 108.216C115.313 107.484 116.389 106.901 117.533 106.484C118.472 106.159 119.453 105.971 120.445 105.927C121.116 105.894 121.789 105.931 122.453 106.037C122.632 106.063 122.81 106.1 122.985 106.148C123.042 106.16 123.098 106.179 123.151 106.203Z" fill="white"/>
</g>
<g opacity="0.8">
<path opacity="0.8" d="M188.139 115.425C188.139 115.425 187.748 115.485 187.055 115.616C186.073 115.806 185.118 116.112 184.209 116.529C182.863 117.155 181.587 117.922 180.404 118.818C179.053 119.822 177.673 121.032 176.217 122.332C173.295 124.903 170.344 126.896 168.004 127.94C167.091 128.363 166.139 128.699 165.163 128.944C164.817 129.039 164.54 129.074 164.355 129.109C164.263 129.136 164.169 129.148 164.074 129.145C164.074 129.145 164.455 129.039 165.133 128.843C166.093 128.557 167.028 128.192 167.929 127.754C170.871 126.241 173.599 124.343 176.041 122.112C177.497 120.831 178.893 119.602 180.263 118.598C181.464 117.698 182.762 116.937 184.134 116.328C185.061 115.924 186.036 115.641 187.035 115.485C187.306 115.443 187.579 115.414 187.853 115.4C187.949 115.397 188.045 115.405 188.139 115.425Z" fill="white"/>
</g>
<g opacity="0.8">
<path opacity="0.8" d="M205.318 121.74C205.722 121.486 206.108 121.205 206.473 120.897C207.333 120.13 207.871 119.066 207.979 117.919C208.087 116.772 207.757 115.626 207.055 114.712C206.747 114.339 206.412 113.99 206.051 113.668C206.051 113.668 206.186 113.713 206.397 113.859C206.688 114.069 206.95 114.317 207.175 114.597C207.561 115.058 207.851 115.591 208.029 116.166C208.208 116.74 208.271 117.344 208.215 117.942C208.159 118.541 207.985 119.123 207.703 119.654C207.421 120.185 207.037 120.655 206.573 121.037C206.3 121.27 205.996 121.464 205.669 121.614C205.561 121.678 205.442 121.72 205.318 121.74Z" fill="white"/>
</g>
<g opacity="0.8">
<path opacity="0.8" d="M131.77 108.618C128.18 106.633 124.008 105.967 119.978 106.735C117.418 107.237 114.802 108.477 113.613 110.796C113.236 111.499 114.541 111.856 115.169 111.69C115.796 111.524 116.404 110.842 116.951 110.5C119.765 108.762 123.152 108.208 126.373 108.959C128.02 109.351 129.616 110.084 131.308 110.058C131.81 110.058 132.423 109.838 132.408 109.346C132.387 109.009 132.061 108.783 131.77 108.618Z" fill="white"/>
</g>
<g opacity="0.8">
<path opacity="0.8" d="M149.862 110.36C149.603 110.437 149.338 110.489 149.069 110.515C148.813 110.55 148.497 110.601 148.14 110.686C147.784 110.771 147.367 110.832 146.92 110.967C146.474 111.103 145.982 111.223 145.47 111.409C144.958 111.595 144.415 111.8 143.848 112.031C141.405 113.09 139.181 114.593 137.287 116.464C136.86 116.901 136.444 117.312 136.102 117.734C135.765 118.111 135.446 118.505 135.148 118.914C134.857 119.27 134.646 119.632 134.426 119.918C134.205 120.204 134.049 120.49 133.924 120.716C133.796 120.954 133.65 121.183 133.487 121.399C133.583 121.145 133.701 120.9 133.838 120.666C133.977 120.381 134.135 120.106 134.31 119.842C134.511 119.526 134.722 119.16 135.003 118.788C135.293 118.368 135.606 117.964 135.942 117.578C136.283 117.147 136.695 116.725 137.121 116.278C139.021 114.367 141.275 112.846 143.758 111.8C144.335 111.575 144.877 111.349 145.409 111.193C145.892 111.029 146.383 110.891 146.88 110.781C147.332 110.656 147.754 110.601 148.115 110.53C148.427 110.471 148.742 110.429 149.059 110.405C149.325 110.371 149.594 110.356 149.862 110.36Z" fill="white"/>
</g>
<g opacity="0.8">
<path opacity="0.8" d="M154.757 110.611C154.337 110.639 153.915 110.612 153.502 110.53C153.081 110.534 152.661 110.487 152.252 110.39C152.655 110.229 153.095 110.187 153.522 110.269C153.957 110.265 154.385 110.383 154.757 110.611Z" fill="white"/>
</g>
<path d="M109.908 84.9534L110.069 75.6664C110.073 75.3784 110.175 75.1002 110.357 74.877C110.539 74.6538 110.791 74.4986 111.073 74.4365C113.166 73.9898 118.101 72.8201 121.524 71.1936C125.937 69.0802 131.228 65.9929 135.013 64.4568C139.175 62.765 150.339 57.4288 152.523 56.6808C152.741 56.6049 152.975 56.591 153.2 56.6406L195.629 65.762C195.7 65.7794 195.773 65.7895 195.845 65.7921C196.528 65.8172 200.434 66.0481 200.665 67.9156C200.875 69.5872 200.619 75.797 200.514 78.0409C200.503 78.2838 200.423 78.5186 200.283 78.7178C200.144 78.9169 199.95 79.0722 199.726 79.1654C195.81 80.7768 177.733 88.3721 173.235 92.9704C168.185 98.136 162.272 102.554 159.937 102.659C157.603 102.764 149.21 99.6972 146.745 98.9241C144.511 98.2213 116.123 88.096 110.756 86.1934C110.502 86.1025 110.283 85.9336 110.131 85.711C109.979 85.4883 109.901 85.2232 109.908 84.9534Z" fill="#FDDAC8"/>
<path d="M200.664 67.9055C200.664 67.9055 186.744 74.2458 180.529 76.9164C174.314 79.5871 169.877 84.08 167.246 86.8159C164.616 89.5518 163.296 91.3891 158.923 91.5096C154.551 91.63 141.353 86.339 134.506 83.578C127.92 80.9174 113.979 76.1082 110.761 75.0038C110.682 74.9721 110.596 74.961 110.512 74.9715C110.427 74.9821 110.347 75.014 110.278 75.0642C110.209 75.1144 110.155 75.1813 110.119 75.2585C110.083 75.3358 110.067 75.4209 110.074 75.5058L110.043 77.2728L109.893 85.8922C109.893 85.8922 144.275 98.1611 146.745 98.9442C149.214 99.7273 157.598 102.784 159.937 102.679C162.277 102.574 168.185 98.1611 173.235 92.9905C178.285 87.8199 200.474 78.8792 200.474 78.8792C200.474 78.8792 200.921 69.9537 200.664 67.9055Z" fill="#663535"/>
<path d="M134.591 67.9356C133.888 68.036 133.386 68.5129 133.517 68.9396C133.647 69.3663 134.39 69.7328 135.113 69.6876C135.836 69.6424 136.429 69.2107 136.388 68.7589C136.348 68.3071 135.676 67.9055 134.948 67.8954" fill="#663535"/>
<path d="M177.372 73.1364C176.664 73.2368 176.167 73.7137 176.297 74.1404C176.428 74.5671 177.171 74.9335 177.889 74.8883C178.607 74.8432 179.204 74.3863 179.164 73.9596C179.124 73.5329 178.456 73.1062 177.728 73.0962" fill="#663535"/>
<path d="M177.613 71.1585C177.201 71.2187 176.915 71.4898 176.99 71.7508C177.065 72.0119 177.492 72.2077 177.914 72.1826C178.336 72.1575 178.672 71.9065 178.647 71.6454C178.622 71.3844 178.24 71.1434 177.819 71.1434" fill="#663535"/>
<path d="M168.672 78.814C168.26 78.8743 167.974 79.1503 168.05 79.4064C168.125 79.6624 168.552 79.8632 168.968 79.8381C169.385 79.813 169.731 79.562 169.706 79.301C169.681 79.0399 169.294 78.799 168.873 78.799" fill="#663535"/>
<path d="M130.821 69.1655C130.41 69.2258 130.123 69.5019 130.199 69.7579C130.274 70.0139 130.701 70.2147 131.122 70.1896C131.544 70.1645 131.88 69.9135 131.855 69.6525C131.83 69.3914 131.449 69.1505 131.027 69.1505" fill="#663535"/>
<path d="M110.761 75.0038L111.007 75.0741L111.725 75.3101L114.476 76.2337C116.866 77.047 120.314 78.2417 124.561 79.7477C126.685 80.5057 129.009 81.3441 131.494 82.2577C133.979 83.1714 136.589 84.2657 139.365 85.3601C142.141 86.4544 145.063 87.5689 148.125 88.6281C149.655 89.1636 151.222 89.6656 152.829 90.1341C154.444 90.6351 156.096 91.011 157.769 91.2586C157.978 91.2928 158.189 91.3096 158.401 91.3088C158.612 91.3088 158.818 91.3389 159.029 91.3088L159.666 91.2737L160.294 91.2034C161.117 91.0985 161.921 90.8718 162.678 90.5307C164.184 89.8279 165.314 88.5879 166.428 87.4233C168.537 85.1145 170.831 82.9807 173.285 81.0429C175.528 79.3341 177.975 77.9109 180.569 76.806L187.306 73.794L197.07 69.4718L199.731 68.3072L200.428 68.011L200.664 67.9156L200.438 68.0361L199.756 68.3523L197.115 69.5622L187.381 73.9647L180.655 76.9767C178.077 78.1104 175.65 79.5606 173.431 81.2939C170.992 83.2296 168.712 85.3582 166.614 87.6592C165.504 88.8239 164.355 90.0939 162.789 90.8269C162.008 91.1799 161.179 91.4135 160.329 91.5196L159.686 91.5949L159.039 91.6301C158.823 91.6301 158.607 91.6301 158.386 91.6301C158.169 91.631 157.953 91.6142 157.738 91.5799C156.05 91.3312 154.383 90.9518 152.754 90.4453C151.147 89.9634 149.578 89.4614 148.045 88.9393C144.978 87.8751 142.056 86.7456 139.28 85.6563C136.504 84.5669 133.893 83.4675 131.414 82.5288C128.934 81.5901 126.619 80.7367 124.501 79.9686L114.461 76.3693L111.725 75.4004L111.012 75.1394L110.761 75.0038Z" fill="#263238"/>
<g opacity="0.3">
<path opacity="0.3" d="M166.021 61.5603C161.217 60.5563 156.298 59.497 151.433 60.1697C146.654 60.8273 142.262 63.0813 138.01 65.3654C133.355 67.8654 128.743 70.4457 124.175 73.1063C123.982 73.2194 123.814 73.3719 123.684 73.554C123.554 73.7361 123.464 73.9436 123.419 74.1629C123.375 74.3823 123.377 74.6085 123.426 74.827C123.475 75.0454 123.569 75.2511 123.703 75.4305C126.424 77.815 129.847 77.3431 133.186 75.9325C136.735 74.4566 139.476 71.5902 142.478 69.1957C145.48 66.8011 149.204 64.753 152.995 65.3955C154.947 65.7319 156.709 66.7509 158.597 67.3433C160.655 67.9909 162.834 68.1164 164.987 68.2369L176.408 68.8844C176.836 68.9187 177.262 68.8054 177.616 68.5635C177.971 68.3215 178.231 67.9656 178.355 67.5548C178.479 67.144 178.458 66.7032 178.297 66.3058C178.135 65.9084 177.842 65.5783 177.467 65.3704C174.099 63.3825 169.937 62.3936 166.021 61.5603Z" fill="white"/>
</g>
<path d="M154.767 74.6373C154.889 75.1293 154.925 75.639 154.872 76.1433C154.904 76.6505 154.852 77.1595 154.716 77.6493C154.597 77.1568 154.561 76.6477 154.611 76.1433C154.579 75.6362 154.631 75.1272 154.767 74.6373Z" fill="#263238"/>
<path d="M154.992 61.9619C155.103 63.0156 155.128 64.0766 155.068 65.1345C155.092 66.192 155.03 67.2497 154.882 68.2971C154.765 67.2454 154.74 66.1855 154.807 65.1295C154.78 64.0703 154.842 63.0107 154.992 61.9619Z" fill="#263238"/>
<path d="M155.153 52.6146C155.273 53.107 155.309 53.6163 155.259 54.1206C155.291 54.6278 155.238 55.1368 155.103 55.6266C154.98 55.1346 154.944 54.6249 154.997 54.1206C154.964 53.6134 155.017 53.1043 155.153 52.6146Z" fill="#263238"/>
<path d="M152.387 143.848C152.265 143.356 152.229 142.846 152.282 142.342C152.249 141.835 152.302 141.326 152.437 140.836C152.56 141.328 152.596 141.838 152.543 142.342C152.575 142.849 152.522 143.358 152.387 143.848Z" fill="#263238"/>
<path d="M152.241 152.156C152.124 151.47 152.092 150.772 152.146 150.078C152.116 149.381 152.172 148.683 152.312 148C152.432 148.687 152.464 149.387 152.407 150.083C152.437 150.778 152.381 151.474 152.241 152.156Z" fill="#263238"/>
<path d="M152.106 159.32C151.985 158.827 151.95 158.318 152.001 157.814C151.968 157.307 152.021 156.798 152.156 156.308C152.279 156.8 152.314 157.309 152.262 157.814C152.295 158.321 152.242 158.83 152.106 159.32Z" fill="#263238"/>
<path d="M152.959 185.625C152.807 184.625 152.826 183.606 153.015 182.613C153.134 183.105 153.17 183.614 153.12 184.119C153.156 184.626 153.102 185.136 152.959 185.625Z" fill="#263238"/>
<path d="M152.789 195.675C152.669 194.844 152.638 194.002 152.698 193.165C152.672 192.324 152.73 191.483 152.874 190.655C152.988 191.486 153.016 192.327 152.959 193.165C152.986 194.005 152.929 194.846 152.789 195.675Z" fill="#263238"/>
<path d="M152.648 203.712C152.526 203.22 152.49 202.71 152.543 202.206C152.51 201.698 152.563 201.189 152.698 200.7C152.819 201.192 152.854 201.701 152.804 202.206C152.836 202.713 152.783 203.222 152.648 203.712Z" fill="#263238"/>
<path d="M154.736 101.786C154.678 102.82 154.703 103.857 154.812 104.888C154.952 103.86 155.014 102.823 154.998 101.786H154.736Z" fill="#263238"/>
<path d="M175.329 25.6019C174 26.3383 172.509 26.7338 170.99 26.753C169.471 26.7723 167.971 26.4148 166.624 25.7124C165.389 25.0497 164.305 24.101 162.984 23.6291C161.866 23.2884 160.675 23.2637 159.544 23.5579C158.413 23.852 157.385 24.4535 156.574 25.2957L156.403 35.2153C157.588 33.3579 159.656 31.9573 161.845 32.2033C163.552 32.389 165.093 33.3026 166.775 33.6239C167.897 33.8355 169.054 33.7786 170.151 33.458C171.248 33.1374 172.253 32.5621 173.085 31.779C173.917 30.9959 174.552 30.0273 174.939 28.9521C175.325 27.8768 175.452 26.7255 175.309 25.5919L175.329 25.6019Z" fill="#FFC100"/>
<path d="M156.659 20.4163C156.735 20.4163 156.659 26.8118 156.483 34.7032C156.308 42.5947 156.112 48.9851 156.042 48.9851C155.971 48.9851 156.042 42.5897 156.222 34.6982C156.403 26.8068 156.589 20.4113 156.659 20.4163Z" fill="#263238"/>
<path d="M161.338 26.5407C161.413 26.5407 161.468 27.7656 161.639 29.2666C161.81 30.7676 162.031 31.9724 161.955 31.9874C161.634 31.1213 161.44 30.2134 161.378 29.2917C161.236 28.3811 161.222 27.455 161.338 26.5407Z" fill="#263238"/>
<path d="M165.545 27.5297L165.966 28.4232L166.94 28.5788L166.222 29.2565L166.373 30.2304L165.504 29.7585L164.626 30.2003L164.812 29.2314L164.114 28.5286L165.093 28.4082L165.545 27.5297Z" fill="white"/>
<path d="M81.9877 67.1179L88.1422 64.2565C91.325 66.599 95.269 67.6661 99.1987 67.2481C103.128 66.83 106.76 64.957 109.378 61.9974C111.997 59.0377 113.414 55.2055 113.35 51.2541C113.287 47.3027 111.747 43.518 109.035 40.6442C106.322 37.7703 102.632 36.0152 98.6913 35.7238C94.7501 35.4325 90.8426 36.626 87.7368 39.0697C84.631 41.5134 82.5518 45.0305 81.9078 48.9295C81.2638 52.8286 82.1017 56.8275 84.2567 60.1401L81.9877 67.1179Z" fill="white"/>
<path d="M81.9867 67.1174C82.1273 66.6756 82.7999 64.527 84.1855 60.1195C84.1902 60.1029 84.2012 60.0888 84.2163 60.0803C84.2313 60.0718 84.2491 60.0697 84.2658 60.0743L84.1704 60.1596C82.6353 57.8263 81.7466 55.1274 81.5951 52.3385C81.5453 51.5012 81.5705 50.6612 81.6705 49.8285C81.7307 49.4018 81.7759 48.965 81.8512 48.5283C81.9265 48.0916 82.052 47.6548 82.1574 47.2131C83.2622 43.3087 85.8106 39.9706 89.2858 37.8759C91.2106 36.7115 93.362 35.9721 95.5959 35.7072C97.9563 35.4424 100.346 35.703 102.594 36.4703C104.946 37.2601 107.075 38.6009 108.804 40.3808C110.578 42.1872 111.895 44.3922 112.644 46.8115C113.347 49.1279 113.519 51.5731 113.146 53.965C112.803 56.229 111.966 58.39 110.696 60.2952C108.421 63.7214 104.913 66.1394 100.902 67.0471C99.1988 67.3994 97.4515 67.4875 95.7214 67.3081C92.9595 66.9963 90.3299 65.9569 88.1011 64.2961H88.1663L81.9817 67.0973L88.1111 64.1857C88.1213 64.1808 88.1324 64.1782 88.1437 64.1782C88.155 64.1782 88.1662 64.1808 88.1764 64.1857C90.3984 65.8058 93.0073 66.8133 95.7415 67.1073C97.453 67.2704 99.1793 67.1739 100.862 66.8212C104.815 65.9186 108.273 63.5367 110.525 60.1647C111.78 58.298 112.608 56.1778 112.95 53.9549C113.311 51.6042 113.139 49.2025 112.448 46.9269C111.708 44.5482 110.413 42.38 108.668 40.6017C106.965 38.8524 104.871 37.5327 102.559 36.7514C100.348 35.9972 97.9979 35.7401 95.6763 35.9984C93.4772 36.256 91.3584 36.98 89.4615 38.1218C86.038 40.1813 83.5256 43.4654 82.4335 47.3084C82.3281 47.7452 82.2226 48.1769 82.1222 48.6036C82.0218 49.0303 82.0018 49.467 81.9415 49.8887C81.8397 50.7095 81.8094 51.5376 81.8512 52.3636C81.9943 55.1256 82.8598 57.8017 84.3612 60.1245C84.3728 60.1367 84.3793 60.1528 84.3793 60.1697C84.3793 60.1865 84.3728 60.2027 84.3612 60.2149C84.3494 60.2231 84.3354 60.2275 84.321 60.2275C84.3067 60.2275 84.2926 60.2231 84.2809 60.2149H84.3863C82.8301 64.5421 82.1323 66.6806 81.9867 67.1174Z" fill="#263238"/>
<path d="M97.4132 55.9429L90.8169 52.6246L97.4332 49.2964L104.06 52.4138L97.4132 55.9429ZM91.9364 52.6246L97.3881 55.3756L102.91 52.4389L97.4182 49.8536L91.9364 52.6246Z" fill="#FFC100"/>
<path d="M97.4081 58.1165L90.8169 54.7983L93.2968 53.5483L93.5227 54.0001L91.9364 54.7983L97.4031 57.5493L102.955 54.6025L101.299 53.7542L101.53 53.3074L104.04 54.5925L97.4081 58.1165Z" fill="#FFC100"/>
<path d="M97.2325 47.5544L91.1733 50.6066L97.2024 53.6387L103.292 50.4058L97.2325 47.5544Z" fill="#FFC100"/>
<path d="M45.2351 171.845C45.2351 171.845 45.958 187.939 46.5604 193.34C47.1628 198.742 52.3083 221.884 52.3083 221.884L60.28 222.466L57.9658 173.873L45.2351 171.845Z" fill="#FDDAC8"/>
<path d="M71.2087 173.888C71.2087 173.888 69.2007 186.593 67.6445 192.964C66.0883 199.334 59.1657 218.325 59.1657 218.325L54.2411 200.433L57.9659 173.893L71.2087 173.888Z" fill="#FDDAC8"/>
<path d="M58.5482 176.855C58.5547 176.894 58.5547 176.935 58.5482 176.975C58.5482 177.065 58.5482 177.181 58.5482 177.316C58.5482 177.643 58.5482 178.079 58.5934 178.637C58.6335 179.806 58.6888 181.458 58.754 183.486C58.8996 187.582 59.1506 193.24 59.4317 199.49C59.7128 205.74 59.9337 211.397 60.0291 215.499C60.0843 217.547 60.1044 219.208 60.1094 220.353C60.1094 220.91 60.1094 221.357 60.1094 221.673C60.1094 221.814 60.1094 221.924 60.1094 222.019C60.1139 222.058 60.1139 222.097 60.1094 222.135C60.1032 222.097 60.1032 222.058 60.1094 222.019V221.673C60.1094 221.352 60.0843 220.91 60.0642 220.358C60.0291 219.188 59.9739 217.537 59.9036 215.504C59.763 211.407 59.507 205.75 59.2309 199.5C58.9548 193.25 58.7289 187.592 58.6285 183.491C58.5783 181.443 58.5582 179.786 58.5532 178.637C58.5532 178.079 58.5532 177.633 58.5532 177.316V176.975C58.5451 176.935 58.5434 176.895 58.5482 176.855Z" fill="#663535"/>
<path d="M51.9319 220.318C51.9319 220.318 58.2219 223.049 60.1597 219.128L61.1988 220.634L66.766 231.563C66.9478 231.906 66.9971 232.305 66.9046 232.682C66.812 233.06 66.5841 233.39 66.264 233.611C66.0201 233.774 65.7344 233.865 65.4408 233.871C65.1472 233.877 64.858 233.799 64.6074 233.646C61.9066 231.974 51.9971 225.795 51.8516 224.7L51.2843 221.844C51.2301 221.557 51.2623 221.261 51.3767 220.993C51.4911 220.725 51.6826 220.497 51.9269 220.338L51.9319 220.318Z" fill="#FFC100"/>
<g opacity="0.6">
<path opacity="0.6" d="M66.018 233.746L51.6458 223.706L51.7763 224.329C51.8616 225.016 52.213 225.222 52.6247 225.584C53.8445 226.668 57.0774 228.977 64.5672 233.651C64.7828 233.785 65.0281 233.863 65.2812 233.878C65.5344 233.894 65.7875 233.847 66.018 233.741V233.746Z" fill="white"/>
</g>
<g opacity="0.6">
<path opacity="0.6" d="M52.971 221.492C53.1802 221.587 53.3471 221.756 53.4397 221.966C53.5323 222.177 53.5442 222.413 53.473 222.632C53.3857 222.843 53.2212 223.012 53.013 223.105C52.8049 223.199 52.569 223.209 52.3535 223.134C52.1345 223.031 51.9601 222.852 51.8623 222.631C51.7645 222.41 51.75 222.16 51.8214 221.929C51.9339 221.717 52.1244 221.556 52.3528 221.481C52.5813 221.406 52.8299 221.423 53.0463 221.528" fill="white"/>
</g>
<path d="M61.2841 228.054C61.3744 228.054 61.5401 227.235 62.3282 226.638C63.1164 226.041 63.9497 226.046 63.9447 225.95C63.9397 225.855 63.7439 225.835 63.3875 225.86C62.9265 225.903 62.4875 226.077 62.1224 226.362C61.7542 226.647 61.4783 227.035 61.3293 227.476C61.2439 227.828 61.2439 228.049 61.2841 228.054Z" fill="#263238"/>
<path d="M62.7499 229.795C62.8353 229.846 63.2068 229.263 63.9146 228.887C64.6224 228.51 65.3051 228.49 65.3101 228.385C65.3152 228.279 64.5622 228.144 63.759 228.591C62.9558 229.037 62.6696 229.77 62.7499 229.795Z" fill="#263238"/>
<path d="M58.7942 225.95C58.8795 226.005 59.4418 225.117 60.501 224.444C61.5602 223.772 62.5843 223.571 62.5692 223.47C62.5542 223.37 61.4397 223.415 60.3152 224.173C59.1908 224.931 58.7339 225.925 58.7942 225.95Z" fill="#263238"/>
<path d="M57.7902 222.471C57.8505 222.552 58.5884 222.04 59.6376 221.774C60.6868 221.507 61.5753 221.583 61.5853 221.487C61.5954 221.392 60.6767 221.161 59.5522 221.457C58.4278 221.753 57.73 222.416 57.7902 222.471Z" fill="#263238"/>
<path d="M60.2399 221.618C60.2149 221.428 60.148 221.246 60.0441 221.086C59.7919 220.622 59.4507 220.213 59.0401 219.881C58.7702 219.607 58.4171 219.431 58.0361 219.379C57.9091 219.375 57.784 219.411 57.678 219.481C57.572 219.551 57.4902 219.652 57.4438 219.771C57.3709 220.007 57.3851 220.262 57.4839 220.488C57.7084 220.937 58.0807 221.294 58.538 221.5C58.9952 221.706 59.5095 221.747 59.9939 221.618C60.4732 221.475 60.8989 221.192 61.2164 220.806C61.534 220.42 61.7288 219.947 61.776 219.449C61.7877 219.324 61.7723 219.198 61.7307 219.079C61.6891 218.96 61.6224 218.852 61.5351 218.762C61.4379 218.679 61.3168 218.629 61.1894 218.62C61.062 218.611 60.9351 218.643 60.8272 218.711C60.5173 218.928 60.2698 219.222 60.1094 219.565C59.8571 220.02 59.6871 220.516 59.6074 221.031C59.5714 221.22 59.5714 221.414 59.6074 221.603C59.7525 220.931 59.9943 220.283 60.3252 219.68C60.4778 219.389 60.6982 219.14 60.9678 218.952C61.0262 218.914 61.0955 218.896 61.1653 218.9C61.235 218.905 61.3014 218.932 61.3543 218.977C61.4075 219.041 61.4469 219.115 61.4702 219.194C61.4936 219.274 61.5002 219.357 61.4899 219.439C61.4346 219.868 61.257 220.271 60.9783 220.602C60.6997 220.932 60.3318 221.175 59.9186 221.302C59.5061 221.414 59.0677 221.383 58.6748 221.215C58.2819 221.046 57.9577 220.749 57.755 220.373C57.6819 220.216 57.6659 220.038 57.7098 219.871C57.7325 219.804 57.776 219.747 57.8338 219.707C57.8917 219.667 57.9609 219.647 58.0311 219.65C58.3526 219.691 58.6538 219.83 58.8945 220.047C59.4332 220.486 59.8889 221.018 60.2399 221.618Z" fill="#263238"/>
<path d="M54.2159 51.5805C54.5526 50.3464 55.2559 49.2436 56.2328 48.4177C57.2096 47.5918 58.4141 47.0818 59.687 46.9551C60.9599 46.8283 62.2413 47.0908 63.3618 47.7078C64.4823 48.3249 65.3893 49.2674 65.9627 50.4108C67.037 52.5493 66.9667 55.3605 68.784 56.9368C70.0339 57.996 71.8813 58.1517 73.1012 59.251C75.6814 61.5703 74.055 66.5853 76.7959 68.7137C75.021 70.0981 72.9454 71.0457 70.7367 71.4798C70.5942 70.7221 70.231 70.0235 69.6926 69.4718C70.1394 70.7569 69.4014 72.2177 68.297 73.0109C67.1926 73.804 65.8121 74.0801 64.4668 74.291C61.2339 74.793 57.8906 75.059 54.7079 74.291C51.5252 73.5229 48.4931 71.5902 47.0423 68.6535C46.6759 67.9055 46.3998 67.0873 45.7924 66.515C45.1849 65.9427 44.2111 65.6817 43.3978 65.3001C42.2832 64.7547 41.3548 63.8916 40.7295 62.8197C40.1042 61.7478 39.81 60.5149 39.8838 59.2761C42.0073 59.1858 43.5032 57.1728 44.4018 55.2601C45.3004 53.3475 46.0283 51.1588 47.7953 49.9791C48.3842 49.5872 49.0547 49.3346 49.7558 49.2407C50.4569 49.1468 51.1702 49.2139 51.8415 49.437C52.5127 49.6601 53.1243 50.0334 53.6297 50.5283C54.1351 51.0232 54.521 51.6269 54.7581 52.2933" fill="#263238"/>
<path d="M66.8915 58.3926C66.6505 55.0845 63.0462 51.8114 59.748 52.1929L49.0554 54.3415L49.1106 56.1286L50.0544 82.3632L58.3274 90.3952L61.9016 82.3632V75.6112C61.9016 75.6112 66.1284 74.8633 66.9216 69.3312C67.3483 66.5752 67.1625 62.0723 66.8915 58.3926Z" fill="#FDDAC8"/>
<path d="M64.8433 62.75C64.8461 62.9348 64.777 63.1135 64.6506 63.2484C64.5241 63.3833 64.3502 63.4637 64.1656 63.4728C64.0758 63.4804 63.9853 63.4699 63.8996 63.442C63.8138 63.4142 63.7345 63.3695 63.6662 63.3106C63.598 63.2517 63.5422 63.1797 63.5021 63.099C63.462 63.0182 63.4384 62.9303 63.4327 62.8403C63.4272 62.6556 63.4948 62.4761 63.6207 62.3408C63.7466 62.2055 63.9207 62.1253 64.1054 62.1174C64.1956 62.1092 64.2866 62.1191 64.3729 62.1467C64.4592 62.1742 64.5392 62.2188 64.608 62.2778C64.6768 62.3367 64.733 62.4089 64.7735 62.49C64.8139 62.5711 64.8376 62.6595 64.8433 62.75Z" fill="#263238"/>
<path d="M65.7619 60.742C65.6715 60.8374 65.1344 60.4458 64.3713 60.4559C63.6083 60.4659 63.0511 60.8525 62.9708 60.7621C62.8904 60.6717 63.0159 60.5513 63.2569 60.3705C63.5849 60.1402 63.9756 60.0158 64.3764 60.0141C64.7741 60.0054 65.1637 60.127 65.4858 60.3605C65.7117 60.5462 65.792 60.7119 65.7619 60.742Z" fill="#263238"/>
<path d="M57.8204 62.7499C57.8232 62.9348 57.7541 63.1135 57.6276 63.2484C57.5012 63.3833 57.3273 63.4637 57.1427 63.4728C57.0526 63.4804 56.9618 63.4699 56.8758 63.4421C56.7898 63.4143 56.7101 63.3697 56.6414 63.3108C56.5728 63.252 56.5165 63.1801 56.4759 63.0993C56.4352 63.0185 56.411 62.9305 56.4047 62.8403C56.4006 62.6551 56.4693 62.4757 56.596 62.3405C56.7227 62.2054 56.8973 62.1253 57.0824 62.1174C57.1727 62.1092 57.2636 62.1191 57.35 62.1467C57.4363 62.1742 57.5162 62.2188 57.585 62.2778C57.6538 62.3367 57.7101 62.4089 57.7505 62.49C57.7909 62.5711 57.8147 62.6595 57.8204 62.7499Z" fill="#263238"/>
<path d="M58.2571 60.9729C58.1717 61.0683 57.6296 60.6767 56.8665 60.6868C56.1035 60.6968 55.5513 61.0833 55.466 60.993C55.3806 60.9026 55.5111 60.7821 55.7571 60.6014C56.0832 60.3672 56.4751 60.2424 56.8766 60.245C57.2718 60.2377 57.6588 60.3574 57.981 60.5864C58.232 60.7671 58.3023 60.9327 58.2571 60.9729Z" fill="#263238"/>
<path d="M61.0833 66.6004C61.483 66.4686 61.8981 66.3893 62.3183 66.3644C62.514 66.3644 62.6998 66.2992 62.7299 66.1686C62.7439 65.9669 62.6966 65.7657 62.5944 65.5913C62.4036 65.1245 62.2078 64.6325 62.002 64.1155C61.1787 62.0121 60.5813 60.2852 60.6667 60.2501C60.752 60.2149 61.49 61.8966 62.3082 64C62.509 64.502 62.6948 65.004 62.8755 65.506C63.0002 65.7397 63.0393 66.0096 62.9859 66.269C62.9575 66.337 62.9144 66.3979 62.8597 66.4474C62.805 66.4968 62.7402 66.5336 62.6697 66.5552C62.562 66.5869 62.4506 66.6038 62.3383 66.6054C61.9214 66.6551 61.4999 66.6534 61.0833 66.6004Z" fill="#263238"/>
<path d="M61.8916 75.6263C59.2302 75.6933 56.6009 75.0338 54.2863 73.7187C54.2863 73.7187 56.1939 77.569 61.9016 77.0018L61.8916 75.6263Z" fill="#663535"/>
<path d="M60.7821 68.4427C60.6346 68.2611 60.4436 68.1199 60.2267 68.0321C60.0099 67.9443 59.7744 67.9129 59.5422 67.9407C59.3743 67.9581 59.2117 68.0093 59.0642 68.0913C58.9166 68.1732 58.7872 68.2842 58.6837 68.4176C58.5825 68.5452 58.5233 68.7012 58.5143 68.8639C58.5053 69.0266 58.5469 69.1881 58.6335 69.3262C58.7571 69.4629 58.9191 69.5591 59.0982 69.6021C59.2774 69.6451 59.4654 69.6329 59.6376 69.5671C59.9964 69.4354 60.3256 69.2341 60.6064 68.9748C60.6919 68.9137 60.7651 68.837 60.8223 68.7489C60.8508 68.7066 60.866 68.6568 60.866 68.6058C60.866 68.5548 60.8508 68.505 60.8223 68.4627" fill="#663535"/>
<path d="M58.8444 67.1525C58.9699 67.1525 58.9799 67.9707 59.6928 68.548C60.4056 69.1253 61.2891 69.05 61.2942 69.1454C61.2992 69.2408 61.1034 69.3061 60.7269 69.3211C60.2426 69.332 59.7698 69.172 59.3916 68.8693C59.0275 68.5807 58.7914 68.1607 58.734 67.6997C58.6988 67.3533 58.7892 67.1475 58.8444 67.1525Z" fill="#263238"/>
<path d="M58.4077 58.8193C58.3324 59.0251 57.5693 58.9347 56.6758 59.0552C55.7822 59.1757 55.0644 59.4217 54.9439 59.2359C54.8887 59.1506 55.0142 58.9548 55.3003 58.7339C55.6864 58.4812 56.1267 58.3229 56.5854 58.2721C57.0424 58.2107 57.5073 58.2607 57.9408 58.4177C58.2721 58.5583 58.4378 58.7339 58.4077 58.8193Z" fill="#263238"/>
<path d="M65.7017 58.1417C65.5661 58.3123 65.039 58.1417 64.4065 58.1417C63.774 58.1417 63.2419 58.2722 63.1164 58.0915C63.0662 58.0061 63.1465 57.8304 63.3774 57.6648C63.6888 57.4648 64.0526 57.3618 64.4227 57.3689C64.7927 57.3761 65.1523 57.493 65.4557 57.7049C65.6816 57.8756 65.7619 58.0563 65.7017 58.1417Z" fill="#263238"/>
<path d="M59.5773 52.4238C59.4773 53.5829 59.0357 54.6863 58.3083 55.5942C57.5808 56.5021 56.6004 57.1738 55.491 57.5241C54.6025 57.7852 53.483 57.9709 53.1818 58.8444C52.8806 59.7179 53.6838 60.6064 54.0854 61.4849C54.3117 62.0309 54.3725 62.6314 54.26 63.2116C54.1475 63.7918 53.8668 64.3261 53.4529 64.7479C52.9509 65.2148 52.3435 65.511 51.8917 66.0079C51.6017 66.3449 51.3912 66.7427 51.2756 67.1719C51.16 67.6011 51.1424 68.0509 51.224 68.4878C51.3954 69.3657 51.84 70.1669 52.4941 70.7769C50.4058 70.8522 48.1367 69.7428 47.4741 67.7649C47.0926 66.5802 47.3285 65.2951 47.5193 64.0652C47.9447 61.2568 48.1127 58.4154 48.0213 55.5764C47.953 55.0958 48.0429 54.606 48.2773 54.1808C48.5969 53.8252 49.0263 53.5866 49.4971 53.5031C52.4618 52.645 55.4806 51.9859 58.5331 51.5303" fill="#263238"/>
<path d="M58.3575 51.5955C58.8663 52.6978 59.5438 53.714 60.3655 54.6075C60.7788 55.0488 61.288 55.3893 61.8538 55.6025C62.4196 55.8158 63.0268 55.8961 63.6285 55.8374L63.0111 54.7481C64.6616 56.5124 66.6597 57.9157 68.8795 58.8695C67.8203 56.7712 66.7259 54.6276 64.994 53.0413C63.2621 51.455 60.732 50.5313 58.5182 51.3044" fill="#263238"/>
<path d="M95.9673 91.9965C95.9673 91.9965 97.895 89.7425 98.7032 89.6471C99.5114 89.5517 100.279 90.124 101.188 90.3148C102.097 90.5055 106.394 90.6009 106.539 90.8168C106.647 91.0038 106.728 91.2049 106.78 91.4142C106.78 91.4142 111.509 91.7154 111.986 91.9965C112.27 92.1621 112.513 92.3884 112.699 92.6591C112.699 92.6591 114.371 92.7545 114.707 93.1611C114.707 93.1611 115.806 93.2565 115.852 93.8288C115.852 93.8288 106.856 95.0737 105.912 95.0235C104.453 94.7976 103.007 94.496 101.58 94.1199L100.576 94.5466L100.279 95.5506L95.9673 91.9965Z" fill="#FDDAC8"/>
<path d="M107.579 91.5598C106.491 91.5738 105.406 91.4694 104.341 91.2485C103.261 91.1094 102.199 90.8553 101.173 90.4905C102.25 90.601 103.321 90.7685 104.381 90.9925C105.456 91.1253 106.523 91.3147 107.579 91.5598Z" fill="#663535"/>
<path d="M112.684 92.6591C111.56 92.9164 110.413 93.0626 109.26 93.0959C108.115 93.22 106.96 93.2335 105.812 93.136C106.95 92.9725 108.096 92.8736 109.245 92.8399C110.387 92.7185 111.535 92.6582 112.684 92.6591Z" fill="#663535"/>
<path d="M114.647 93.1812C114.647 93.1812 114.697 93.1812 114.742 93.2314C114.77 93.2796 114.782 93.3359 114.775 93.3914C114.767 93.4469 114.742 93.4984 114.702 93.5376C114.574 93.638 114.412 93.6864 114.25 93.6732L113.663 93.7083C112.794 93.7535 111.595 93.7936 110.269 93.8238C108.944 93.8539 107.759 93.8689 106.876 93.8639C106.405 93.8864 105.933 93.8663 105.465 93.8037C105.929 93.7195 106.399 93.6775 106.871 93.6782C107.739 93.633 108.939 93.5929 110.264 93.5627C111.589 93.5326 112.774 93.5176 113.658 93.5226H114.245C114.379 93.5469 114.518 93.5238 114.637 93.4573C114.665 93.4319 114.685 93.3992 114.696 93.3629C114.706 93.3266 114.707 93.288 114.697 93.2515C114.677 93.2063 114.642 93.1913 114.647 93.1812Z" fill="#663535"/>
<path d="M41.4752 136.012C41.4752 136.012 39.3316 144.511 40.0646 149.315C40.7975 154.119 43.6739 180.775 43.6739 180.775L46.45 180.906L72.2076 182.095C72.2076 182.095 76.2588 158.2 77.8601 151.233C79.4615 144.265 76.575 136.012 76.575 136.012L61.9267 129.145L41.4752 136.012Z" fill="#455A64"/>
<path d="M48.8697 76.1182L46.7914 79.7376L37.2534 83.8992L40.9431 101.469L46.3848 117.342L38.4934 144.179L79.1553 147.789C79.1553 147.789 75.044 122.006 73.543 116.815L72.1776 103.302L71.5752 81.4595L62.8153 78.8491L61.746 77.2477L57.7601 89.0598L48.8697 76.1182Z" fill="#455A64"/>
<path d="M25.5618 116.499C25.5618 116.499 22.9665 112.679 23.5136 109.973C24.0608 107.267 34.9793 86.0829 34.9793 86.0829L37.2333 83.9243L38.1971 85.7867L40.923 101.514L33.4532 111.554L43.4932 120.199C43.4932 120.746 39.8638 127.674 39.8638 127.674C39.8638 127.674 25.6973 118.276 25.5618 116.499Z" fill="#455A64"/>
<path d="M26.6763 112.9C26.9372 112.664 27.2359 112.474 27.5598 112.338C29.0812 111.574 30.7737 111.214 32.4744 111.293C32.8254 111.287 33.1749 111.34 33.5085 111.449C32.3308 111.455 31.1555 111.557 29.9945 111.755C28.8583 112.043 27.7483 112.426 26.6763 112.9Z" fill="#263238"/>
<path d="M33.5085 111.444C33.4583 111.524 31.9272 110.284 29.6983 109.436C28.3414 108.966 26.9288 108.676 25.4966 108.573C25.9164 108.489 26.347 108.474 26.7717 108.527C27.8027 108.6 28.8174 108.823 29.7837 109.19C30.7491 109.555 31.6662 110.038 32.5145 110.626C32.8821 110.851 33.2166 111.127 33.5085 111.444Z" fill="#263238"/>
<path d="M71.565 81.4595C73.0151 83.4031 74.3559 85.426 75.581 87.5187C77.4786 90.7817 82.9504 102.579 82.9504 102.579L94.8779 91.2033L101.404 96.0426C101.404 96.0426 86.5598 113.989 83.8339 114.863C81.1081 115.736 79.8179 114.1 79.8179 114.1L72.2528 104.009L71.048 90.1341L71.565 81.4595Z" fill="#455A64"/>
<path d="M73.8542 117.915C73.8331 117.879 73.8146 117.842 73.799 117.804L73.6585 117.463C73.538 117.162 73.3723 116.71 73.1565 116.143C72.6545 115.008 71.9316 113.382 70.9125 111.429C68.9045 107.498 65.8323 102.227 62.2681 96.5145C58.7039 90.8017 55.3355 85.7165 52.8707 82.0519C51.6408 80.2396 50.6468 78.7638 49.939 77.7246L49.1508 76.5399L48.95 76.2287C48.9049 76.1584 48.8848 76.1232 48.8898 76.1182C48.9184 76.1484 48.9452 76.1803 48.9701 76.2136L49.191 76.5098L50.0243 77.6644C50.7472 78.6684 51.7663 80.1342 53.0363 81.9464C55.5463 85.5859 58.9298 90.6612 62.504 96.3739C66.0783 102.087 69.1204 107.388 71.0932 111.344C72.0972 113.311 72.8 114.958 73.2669 116.103C73.4878 116.68 73.6384 117.137 73.7689 117.443L73.8844 117.794C73.8808 117.836 73.8706 117.876 73.8542 117.915Z" fill="#263238"/>
<path d="M36.7363 91.6702C36.8015 91.6451 38.3678 95.3348 40.2503 99.9131C42.1328 104.491 43.5685 108.226 43.4982 108.256C43.4279 108.286 41.8717 104.592 39.9842 100.013C38.0967 95.4352 36.671 91.6953 36.7363 91.6702Z" fill="#263238"/>
<path d="M70.6313 85.8771C70.7066 85.8771 71.1634 90.1441 71.6353 95.4151C72.1072 100.686 72.4686 104.953 72.3984 104.983C72.3281 105.013 71.8662 100.716 71.3944 95.4453C70.9225 90.1743 70.561 85.8822 70.6313 85.8771Z" fill="#263238"/>
<path d="M79.1453 147.789C79.0093 147.811 78.8714 147.82 78.7337 147.814C78.4626 147.814 78.061 147.814 77.5489 147.814C76.5449 147.814 75.0389 147.754 73.1966 147.613L66.766 147.086L62.9709 146.76L58.8846 146.499C53.2873 146.152 48.2221 145.7 44.5876 145.138C42.7654 144.872 41.3045 144.586 40.2955 144.385L39.156 144.124C39.0208 144.099 38.8881 144.062 38.7594 144.014C38.8929 144.024 39.0254 144.044 39.156 144.074L40.3206 144.285C41.3246 144.455 42.7955 144.712 44.6177 144.957C48.2522 145.46 53.3124 145.891 58.9097 146.238L62.9909 146.504L66.7911 146.85L73.2167 147.442C75.044 147.603 76.5299 147.683 77.554 147.724L78.7387 147.764C78.8747 147.761 79.0106 147.77 79.1453 147.789Z" fill="#263238"/>
<path d="M65.7619 93.1812C65.4188 93.4767 65.0472 93.7374 64.6525 93.9593C63.9497 94.4061 62.9608 95.0035 61.8564 95.631C60.752 96.2585 59.7279 96.8006 58.9799 97.1721C58.5905 97.4022 58.1762 97.5875 57.745 97.7243C58.1073 97.4546 58.4919 97.2161 58.8946 97.0115L61.7259 95.4051L64.5571 93.7987C64.9389 93.5562 65.3422 93.3495 65.7619 93.1812Z" fill="#263238"/>
<path d="M67.4588 97.0868C67.1299 97.3465 66.7708 97.5656 66.3895 97.7394C65.7118 98.1059 64.758 98.5878 63.6887 99.0747C62.6195 99.5617 61.6255 99.9633 60.9026 100.229C60.5206 100.402 60.1196 100.528 59.7079 100.606C60.0635 100.386 60.4402 100.203 60.8324 100.059L63.5783 98.8338L66.3092 97.5737C66.6762 97.3756 67.0611 97.2126 67.4588 97.0868Z" fill="#263238"/>
<path d="M61.0533 171.779C61.0156 171.517 60.9988 171.251 61.0031 170.986C61.0031 170.484 60.9629 169.736 60.9227 168.823C60.8374 166.995 60.6466 164.475 60.2601 161.714C59.8736 158.953 59.3465 156.483 58.9198 154.686C58.7039 153.798 58.5282 153.08 58.4178 152.583C58.338 152.329 58.2792 152.068 58.2421 151.805C58.3567 152.045 58.4475 152.295 58.5131 152.553C58.6738 153.055 58.8796 153.753 59.1155 154.641C59.7291 156.953 60.2035 159.3 60.5362 161.669C60.8707 164.033 61.0685 166.415 61.1286 168.802C61.1286 169.721 61.1286 170.464 61.1286 170.976C61.1285 171.246 61.1033 171.515 61.0533 171.779Z" fill="#263238"/>
<g opacity="0.3">
<path opacity="0.3" d="M43.6138 127.623C44.0475 127.672 44.4865 127.613 44.8925 127.453C45.2985 127.293 45.6592 127.036 45.943 126.705C46.5555 126.087 47.0073 125.324 47.6298 124.697C48.516 123.943 49.5026 123.316 50.5615 122.834C51.6268 122.353 52.5426 121.594 53.212 120.636C53.8094 119.632 53.8395 118.216 52.9911 117.423C51.9871 116.469 50.3004 116.845 49.0806 117.528C47.3786 118.509 45.976 119.934 45.0234 121.652C44.0708 123.369 43.6043 125.314 43.674 127.277" fill="black"/>
</g>
<path d="M43.3577 120.58L48.0363 115.058L51.9971 114.481C52.0906 114.714 52.0906 114.974 51.9971 115.207C51.9035 115.44 51.7237 115.628 51.4951 115.731C50.8525 116.087 48.8245 116.268 48.8245 116.268L47.5946 117.744L49.4871 116.78L53.1718 116.424C53.1718 116.424 53.483 117.428 52.6698 117.744C52.6698 117.744 52.3134 118.884 51.7511 119.25C51.2718 119.497 50.751 119.654 50.215 119.712C50.215 119.712 50.717 120.274 50.3706 120.716C50.0242 121.158 48.2974 121.429 48.2974 121.429L45.6217 122.784C45.6217 122.784 44.2713 126.916 43.5535 127.016C42.8356 127.116 40.7172 125.967 40.7172 125.967L43.3577 120.58Z" fill="#FDDAC8"/>
<path d="M49.4871 116.77C49.5624 116.876 48.689 117.408 47.6046 117.99C46.9598 118.372 46.2888 118.707 45.5966 118.994C45.5464 118.924 46.3798 118.341 47.4741 117.759C48.0163 117.468 48.5183 117.217 48.8797 117.041C49.2412 116.866 49.4721 116.765 49.4871 116.77Z" fill="#663535"/>
<path d="M52.8204 117.764C52.4679 117.845 52.1078 117.889 51.7461 117.895C50.8932 117.954 50.0598 118.177 49.2913 118.552C48.3978 118.999 47.6347 119.556 47.0323 119.832C46.7262 120.027 46.3852 120.16 46.0283 120.224C46.3251 120.022 46.6336 119.838 46.952 119.672C47.5193 119.335 48.2622 118.783 49.1859 118.316C49.982 117.922 50.8578 117.716 51.7461 117.714C52.1048 117.683 52.4661 117.7 52.8204 117.764Z" fill="#663535"/>
<g opacity="0.3">
<path opacity="0.3" d="M77.9957 147.769C66.1393 150.763 53.6239 149.73 42.4189 144.832L77.9957 147.769Z" fill="black"/>
</g>
</svg>
