<svg width="57" height="57" viewBox="0 0 57 57" fill="none" xmlns="http://www.w3.org/2000/svg">
<g clip-path="url(#clip0)">
<path d="M46.5348 57C32.433 57 18.3312 57 4.2294 57C2.9754 56.6694 1.7898 56.1678 1.0602 55.0506C0.6042 54.3552 0.342 53.5344 0 52.7706C0 36.594 0 20.406 0 4.2294C0.342 3.4656 0.6042 2.6448 1.0602 1.9494C1.7898 0.8322 2.9754 0.342 4.2294 0C20.406 0 36.594 0 52.7706 0C54.0246 0.342 55.2102 0.8322 55.9398 1.9494C56.3958 2.6448 56.6466 3.4656 57 4.2294C57 18.3312 57 32.433 57 46.5348C56.886 46.6146 56.7492 46.683 56.658 46.7742C53.3634 50.0688 50.0688 53.352 46.7856 56.6466C46.683 56.7492 46.6146 56.886 46.5348 57ZM2.7588 12.255C2.7474 12.4374 2.736 12.5628 2.736 12.6996C2.736 25.7184 2.736 38.7486 2.736 51.7674C2.736 53.409 3.6024 54.264 5.2554 54.264C18.4452 54.264 31.635 54.264 44.8248 54.264C45.5088 54.264 45.828 53.9334 45.8394 53.2494C45.8508 51.9156 45.8166 50.5818 45.8736 49.248C45.942 47.4126 47.4012 45.9534 49.2252 45.885C50.5362 45.828 51.8586 45.8622 53.1696 45.8508C53.9562 45.8508 54.264 45.543 54.264 44.745C54.264 34.1202 54.264 23.484 54.264 12.8592C54.264 12.6654 54.2412 12.4716 54.2298 12.2664C37.05 12.255 19.9386 12.255 2.7588 12.255ZM28.4886 9.0288C29.9364 9.0288 31.1448 7.8546 31.179 6.4068C31.2018 4.959 29.9478 3.705 28.5 3.7164C27.0522 3.7278 25.8438 4.9362 25.8438 6.3726C25.8324 7.809 27.0408 9.0174 28.4886 9.0288ZM23.1648 6.3726C23.1648 4.9134 21.9906 3.7278 20.5314 3.705C19.0836 3.6822 17.8182 4.9476 17.841 6.3954C17.8638 7.8546 19.0608 9.0288 20.52 9.0288C21.9792 9.0174 23.1534 7.8432 23.1648 6.3726ZM33.8352 6.327C33.8238 7.7976 34.9866 9.006 36.4344 9.0174C37.9164 9.0402 39.1362 7.8546 39.1476 6.384C39.159 4.9476 37.9734 3.7392 36.5142 3.705C35.0778 3.6822 33.858 4.8792 33.8352 6.327ZM15.162 6.3726C15.162 4.9134 13.9878 3.7278 12.5286 3.7164C11.0808 3.705 9.8838 4.8906 9.8724 6.3498C9.861 7.8432 11.0466 9.0288 12.54 9.0288C13.9992 9.0174 15.162 7.8432 15.162 6.3726ZM47.1276 6.3612C47.1162 4.902 45.942 3.7164 44.4828 3.7164C43.0122 3.7164 41.8266 4.9248 41.838 6.4182C41.8494 7.8888 43.035 9.0402 44.5056 9.0288C45.9762 9.0174 47.139 7.8318 47.1276 6.3612Z" fill="#FFFAFA"/>
<path d="M23.427 30.267C23.6322 30.5292 23.826 30.8142 24.054 31.0422C29.6628 36.6624 35.283 42.2712 40.8918 47.8914C41.439 48.4386 41.7924 49.02 41.5302 49.818C41.1654 50.9238 39.9114 51.3456 38.9652 50.673C38.8284 50.5818 38.7144 50.4564 38.589 50.3424C32.775 44.5284 26.9724 38.7144 21.147 32.9118C21.0444 32.8092 20.8164 32.7066 20.7024 32.7522C18.4566 33.6072 16.3476 33.1284 14.364 31.9884C11.742 30.4836 9.9636 28.2834 9.2796 25.2852C8.6982 22.7316 9.5874 20.349 11.5596 19.2204C13.2468 18.2514 15.0594 18.2628 16.8264 18.9126C20.6682 20.3376 23.0622 23.0508 23.7462 27.1434C23.9058 28.0896 23.7576 29.0244 23.4156 29.925C23.37 30.0618 23.3244 30.1986 23.2788 30.3354C23.3472 30.324 23.3928 30.3012 23.427 30.267Z" fill="#FFFAFA"/>
<path d="M30.7002 35.6478C29.8908 34.827 29.1384 34.0632 28.443 33.3564C28.9902 32.7978 29.5944 32.1822 30.153 31.6122C29.868 30.8712 29.5602 30.2784 29.412 29.64C29.0016 27.93 29.4348 26.3682 30.438 24.966C30.9054 24.3276 31.4298 23.7234 31.9884 23.1534C34.1316 20.9874 36.2862 18.8442 38.4408 16.701C38.6004 16.5414 38.7486 16.3818 38.9424 16.2564C39.33 16.0056 39.729 16.0398 40.0482 16.3704C40.3788 16.701 40.413 17.0886 40.1394 17.4762C40.014 17.6586 39.8544 17.8182 39.6948 17.9778C37.5516 20.1324 35.397 22.287 33.2424 24.4302C33.0942 24.5784 32.9232 24.681 32.718 24.8292C33.231 25.2852 33.6414 25.6614 34.086 26.0604C35.169 24.9774 36.309 23.8374 37.449 22.6974C38.6346 21.5118 39.8088 20.3376 40.9944 19.152C41.1198 19.0266 41.2566 18.8898 41.4048 18.7758C41.7924 18.5022 42.18 18.525 42.522 18.8442C42.8526 19.1634 42.9324 19.5624 42.6588 19.95C42.4422 20.2464 42.18 20.5086 41.9178 20.7708C39.7176 22.971 37.5174 25.1826 35.3286 27.36C35.739 27.759 36.1266 28.1466 36.5712 28.5798C36.6624 28.5 36.7992 28.3632 36.936 28.2264C39.1248 26.0376 41.3136 23.8488 43.5138 21.66C43.6734 21.5004 43.833 21.3408 44.0268 21.2382C44.403 21.033 44.8476 21.0444 45.0642 21.4206C45.2238 21.6942 45.2238 22.0932 45.1896 22.4352C45.1668 22.6176 44.9388 22.7886 44.7792 22.9482C42.6018 25.1256 40.4244 27.303 38.247 29.4804C38.1102 29.6172 37.9734 29.7654 37.8594 29.8908C38.2698 30.3012 38.6688 30.6888 39.1704 31.2018C39.2502 31.0878 39.33 30.8826 39.4668 30.7458C41.6328 28.557 43.8102 26.3796 45.999 24.2022C46.1814 24.0198 46.3752 23.8374 46.6032 23.7234C46.9794 23.5182 47.3898 23.6094 47.5836 23.9514C47.7432 24.2136 47.7432 24.5898 47.7318 24.9204C47.7318 25.0686 47.538 25.2282 47.4012 25.3536C45.0186 27.7476 42.6588 30.1644 40.2306 32.5128C38.9196 33.7782 37.3806 34.7814 35.4654 34.6902C34.6104 34.6446 33.7554 34.3026 32.9232 34.0176C32.604 33.9036 32.4216 33.8466 32.1708 34.1316C31.7034 34.6446 31.1904 35.1462 30.7002 35.6478Z" fill="#FFFAFA"/>
<path d="M23.8944 37.6998C24.7038 38.5092 25.4676 39.273 26.2428 40.0368C26.1744 40.1166 26.0832 40.2192 25.9806 40.3218C22.7088 43.605 19.4256 46.8768 16.1538 50.16C15.6978 50.616 15.1962 50.9352 14.535 50.8212C13.908 50.7072 13.4406 50.3652 13.224 49.7496C13.0074 49.134 13.0986 48.5412 13.5546 48.0396C13.6914 47.8914 13.8396 47.7432 13.9764 47.595C17.1456 44.4258 20.3262 41.2452 23.4954 38.076C23.6208 37.9506 23.769 37.8138 23.8944 37.6998Z" fill="#FFFAFA"/>
</g>
<defs>
<clipPath id="clip0">
<rect width="57" height="57" fill="white"/>
</clipPath>
</defs>
</svg>
