<svg width="22" height="21" viewBox="0 0 22 21" fill="none" xmlns="http://www.w3.org/2000/svg">
<path d="M8.53662 17.2889C8.30595 17.2889 8.09106 17.2023 7.92939 17.0443C7.76773 16.8862 7.68296 16.6792 7.6869 16.459L7.87419 8.88252C7.87813 8.77337 7.9708 8.68492 8.08711 8.68868C8.20343 8.69057 8.29412 8.78278 8.29215 8.89193L8.10486 16.4684C8.10091 16.5794 8.14626 16.6867 8.22709 16.7658C8.30989 16.8467 8.4203 16.89 8.53662 16.89C8.65491 16.89 8.76531 16.8467 8.84614 16.7658C8.92895 16.6867 8.97232 16.5794 8.97035 16.4684L8.78305 8.89193C8.78108 8.78278 8.87177 8.69057 8.98612 8.68868C9.10244 8.68492 9.19707 8.77337 9.20101 8.88252L9.38633 16.459C9.39225 16.6792 9.30747 16.8862 9.14581 17.0443C8.98415 17.2023 8.76728 17.2889 8.53662 17.2889Z" fill="#363F5F"/>
<path d="M13.7907 17.2889C13.56 17.2889 13.3431 17.2024 13.1835 17.0443C13.0218 16.8862 12.935 16.6792 12.941 16.459L13.1342 8.66799C13.1361 8.55884 13.2288 8.47415 13.3412 8.47415C13.3431 8.47415 13.3451 8.47415 13.3471 8.47415C13.4614 8.47603 13.5541 8.56636 13.5502 8.6774L13.3589 16.4684C13.355 16.5794 13.3983 16.6867 13.4811 16.7658C13.564 16.8467 13.6724 16.89 13.7907 16.89C13.909 16.89 14.0174 16.8467 14.1002 16.7658C14.183 16.6867 14.2264 16.5794 14.2244 16.4684L14.0312 8.6774C14.0292 8.56636 14.1199 8.47603 14.2343 8.47415C14.2362 8.47415 14.2382 8.47415 14.2402 8.47415C14.3526 8.47415 14.4452 8.55884 14.4472 8.66799L14.6404 16.459C14.6463 16.6792 14.5596 16.8862 14.3999 17.0443C14.2382 17.2024 14.0213 17.2889 13.7907 17.2889Z" fill="#363F5F"/>
<path d="M8.99202 9.08766C8.9033 9.08766 8.8205 9.03308 8.7929 8.9484C8.75741 8.84301 8.81853 8.7301 8.92893 8.69811C9.72345 8.45911 10.2991 7.50687 10.2991 6.43419C10.2991 5.15263 9.50855 4.11006 8.5366 4.11006C7.56662 4.11006 6.77605 5.15263 6.77605 6.43419C6.77605 7.50687 7.35173 8.45911 8.14625 8.69811C8.25665 8.7301 8.3158 8.84301 8.28228 8.9484C8.24679 9.0519 8.13047 9.11024 8.02007 9.07825C7.0422 8.78279 6.35809 7.69506 6.35809 6.43419C6.35809 4.93245 7.33596 3.71298 8.5366 3.71298C9.73922 3.71298 10.7151 4.93245 10.7151 6.43419C10.7151 7.69506 10.033 8.78279 9.05511 9.07825C9.03342 9.08389 9.01174 9.08766 8.99202 9.08766Z" fill="#363F5F"/>
<path d="M13.7907 8.93144C12.7714 8.93144 11.9414 8.13916 11.9414 7.16434V3.71672C11.9414 3.60757 12.0341 3.51724 12.1484 3.51724C12.2647 3.51724 12.3574 3.60757 12.3574 3.71672V7.16434C12.3574 7.91898 13.0001 8.53248 13.7907 8.53248C14.5812 8.53248 15.224 7.91898 15.224 7.16434V3.71672C15.224 3.60757 15.3166 3.51724 15.4329 3.51724C15.5473 3.51724 15.6419 3.60757 15.6419 3.71672V7.16434C15.6419 8.13916 14.8119 8.93144 13.7907 8.93144Z" fill="#363F5F"/>
<path d="M13.2426 7.7816C13.1282 7.7816 13.0356 7.69315 13.0356 7.58212V3.71672C13.0356 3.60757 13.1282 3.51724 13.2426 3.51724C13.3589 3.51724 13.4516 3.60757 13.4516 3.71672V7.58212C13.4516 7.69315 13.3589 7.7816 13.2426 7.7816Z" fill="#363F5F"/>
<path d="M14.3387 7.7816C14.2224 7.7816 14.1298 7.69315 14.1298 7.58212V3.71672C14.1298 3.60757 14.2224 3.51724 14.3387 3.51724C14.4531 3.51724 14.5457 3.60757 14.5457 3.71672V7.58212C14.5457 7.69315 14.4531 7.7816 14.3387 7.7816Z" fill="#363F5F"/>
<path d="M10.999 21C4.93467 21 0 16.2896 0 10.5009C0 4.71037 4.93467 0 10.999 0C17.0653 0 22 4.71037 22 10.5009C22 16.2896 17.0653 21 10.999 21ZM10.999 0.39896C5.16534 0.39896 0.417959 4.93055 0.417959 10.5009C0.417959 16.0713 5.16534 20.6029 10.999 20.6029C16.8347 20.6029 21.582 16.0713 21.582 10.5009C21.582 4.93055 16.8347 0.39896 10.999 0.39896Z" fill="#363F5F"/>
</svg>
