<svg width="22" height="21" viewBox="0 0 22 21" fill="none" xmlns="http://www.w3.org/2000/svg">
<path d="M10.999 11.8032C9.09851 11.8032 7.55286 10.3259 7.55286 8.51365V5.22223H14.4452V8.51365C14.4452 10.3259 12.8996 11.8032 10.999 11.8032ZM7.97082 5.62119V8.51365C7.97082 10.1076 9.32918 11.4042 10.999 11.4042C12.6689 11.4042 14.0292 10.1076 14.0292 8.51365V5.62119H7.97082Z" fill="#363F5F"/>
<path d="M8.22706 5.62121C8.11863 5.62121 8.02597 5.54029 8.02006 5.43491C8.01611 5.3935 8.01611 5.35398 8.01611 5.31258C8.01611 4.22861 8.93878 3.34601 10.0744 3.34601C10.443 3.34601 10.8038 3.4401 11.1173 3.617C11.4485 3.80331 11.7166 4.07242 11.896 4.3961C11.9493 4.49208 11.9118 4.61252 11.8093 4.66521C11.7068 4.71602 11.5806 4.67839 11.5274 4.58241C11.3834 4.32271 11.1705 4.10817 10.9063 3.9595C10.656 3.82024 10.3681 3.74497 10.0744 3.74497C9.16944 3.74497 8.4321 4.4488 8.4321 5.31258C8.4321 5.34457 8.43407 5.37845 8.43604 5.41044C8.44393 5.51959 8.35521 5.61368 8.24086 5.62121C8.23692 5.62121 8.23101 5.62121 8.22706 5.62121Z" fill="#363F5F"/>
<path d="M10.6441 5.62121C10.6205 5.62121 10.5948 5.61745 10.5712 5.60804C10.4627 5.5704 10.4095 5.4556 10.4489 5.3521C10.5002 5.22037 10.5712 5.0924 10.6579 4.97572C10.8965 4.64827 11.2513 4.40551 11.6555 4.29636C12.0321 4.19474 12.4402 4.20979 12.8088 4.34341C13.2938 4.52219 13.6783 4.88916 13.8616 5.3521C13.903 5.45372 13.8498 5.56852 13.7414 5.60804C13.6329 5.64756 13.5127 5.59675 13.4713 5.49324C13.3293 5.13568 13.0336 4.8534 12.659 4.71602C12.3751 4.6144 12.0616 4.59934 11.7699 4.68027C11.4584 4.76495 11.1843 4.95126 10.999 5.20531C10.932 5.29564 10.8787 5.39162 10.8393 5.49136C10.8078 5.57228 10.7289 5.62121 10.6441 5.62121Z" fill="#363F5F"/>
<path d="M12.7339 4.7292C12.6196 4.7292 12.5269 4.64075 12.525 4.5316C12.521 4.09876 12.1484 3.74497 11.693 3.74497C11.4919 3.74497 11.2987 3.8146 11.1489 3.9388C11.0621 4.01032 10.93 4.00279 10.8551 3.91998C10.7802 3.83718 10.7881 3.71109 10.8748 3.63958C11.1015 3.44951 11.3914 3.34601 11.693 3.34601C12.3771 3.34601 12.937 3.8767 12.9429 4.52972C12.9429 4.63887 12.8503 4.7292 12.7359 4.7292H12.7339Z" fill="#363F5F"/>
<path d="M10.999 17.1007C10.8847 17.1007 10.79 17.0123 10.79 16.9012V11.6037C10.79 11.4927 10.8847 11.4042 10.999 11.4042C11.1153 11.4042 11.208 11.4927 11.208 11.6037V16.9012C11.208 17.0123 11.1153 17.1007 10.999 17.1007Z" fill="#363F5F"/>
<path d="M12.8266 17.6521H9.17145V17.4526C9.17145 16.9784 9.57758 16.5926 10.0744 16.5926H11.9237C12.4225 16.5926 12.8266 16.9784 12.8266 17.4526V17.6521ZM9.63672 17.255H12.3633C12.2845 17.0988 12.1169 16.9897 11.9237 16.9897H10.0744C9.88119 16.9897 9.71558 17.0988 9.63672 17.255Z" fill="#363F5F"/>
<path d="M10.999 21C4.93467 21 0 16.2896 0 10.4991C0 4.71037 4.93467 0 10.999 0C17.0653 0 22 4.71037 22 10.4991C22 16.2896 17.0653 21 10.999 21ZM10.999 0.397079C5.16337 0.397079 0.415987 4.92867 0.415987 10.4991C0.415987 16.0695 5.16337 20.601 10.999 20.601C16.8347 20.601 21.582 16.0695 21.582 10.4991C21.582 4.92867 16.8347 0.397079 10.999 0.397079Z" fill="#363F5F"/>
</svg>
