<svg width="302" height="302" viewBox="0 0 302 302" fill="none" xmlns="http://www.w3.org/2000/svg">
<path d="M253.106 161.347C257.455 130.186 236.375 89.9416 214.523 73.9054C175.069 44.9497 142.29 52.3185 116.795 64.4287C91.3006 76.5389 87.6646 113.389 70.064 130.766C52.4634 148.143 31.2207 174.991 57.9236 196.052C84.6264 217.114 117.412 200.788 145.334 198.154C173.257 195.521 210.271 205.004 230.305 194.488C244.294 187.119 251.179 175.118 253.106 161.347Z" fill="#F77F00"/>
<path opacity="0.7" d="M253.106 161.347C257.455 130.186 236.375 89.9416 214.523 73.9054C175.069 44.9497 142.29 52.3185 116.795 64.4287C91.3006 76.5389 87.6646 113.389 70.064 130.766C52.4634 148.143 31.2207 174.991 57.9236 196.052C84.6264 217.114 117.412 200.788 145.334 198.154C173.257 195.521 210.271 205.004 230.305 194.488C244.294 187.119 251.179 175.118 253.106 161.347Z" fill="white"/>
<g filter="url(#filter0_d)">
<path d="M273.648 240.954H37.2366L64.5132 180.487H246.372L273.648 240.954Z" fill="white" fill-opacity="0.82" stroke="#263238" stroke-linecap="round" stroke-linejoin="round"/>
</g>
<path d="M156.291 230.124C210.661 230.124 254.737 219.667 254.737 206.767C254.737 193.868 210.661 183.411 156.291 183.411C101.921 183.411 57.8451 193.868 57.8451 206.767C57.8451 219.667 101.921 230.124 156.291 230.124Z" fill="#F77F00"/>
<path opacity="0.5" d="M156.291 230.124C210.661 230.124 254.737 219.667 254.737 206.767C254.737 193.868 210.661 183.411 156.291 183.411C101.921 183.411 57.8451 193.868 57.8451 206.767C57.8451 219.667 101.921 230.124 156.291 230.124Z" fill="white"/>
<path d="M205.396 175.383C205.396 175.383 192.108 176.096 184.806 175.915C177.504 175.734 173.626 174.852 165.816 173.789C158.007 172.726 148.071 171.3 147.376 180.173C146.682 189.046 152.347 189.94 173.113 195.273C193.878 200.607 212.693 202.195 228.681 194.385C244.668 186.576 245.363 172.037 240.392 170.606C235.421 169.174 229.212 172.2 217.857 173.445C206.502 174.689 205.396 175.383 205.396 175.383Z" fill="#263238" stroke="#263238" stroke-linecap="round" stroke-linejoin="round"/>
<path d="M184.45 177.159C184.45 177.159 192.616 178.047 196.699 177.691C200.782 177.334 204.152 176.446 205.396 175.383C206.641 174.32 205.215 131.545 205.215 129.238C205.215 126.931 201.313 123.029 199.006 121.253C196.699 119.477 188.001 118.414 183.743 121.96C179.485 125.505 178.597 136.341 178.597 148.94C178.597 161.54 176.646 173.608 177.709 175.027C178.772 176.446 184.45 177.159 184.45 177.159Z" fill="white"/>
<path opacity="0.4" d="M184.45 177.159C184.45 177.159 192.616 178.047 196.699 177.691C200.782 177.334 204.152 176.446 205.396 175.383C206.641 174.32 205.215 131.545 205.215 129.238C205.215 126.931 201.313 123.029 199.006 121.253C196.699 119.477 188.001 118.414 183.743 121.96C179.485 125.505 178.597 136.341 178.597 148.94C178.597 161.54 176.646 173.608 177.709 175.027C178.772 176.446 184.45 177.159 184.45 177.159Z" fill="black"/>
<path d="M184.45 177.159C184.45 177.159 192.616 178.047 196.699 177.691C200.782 177.334 204.152 176.446 205.396 175.383C206.641 174.32 205.215 131.545 205.215 129.238C205.215 126.931 201.313 123.029 199.006 121.253C196.699 119.477 188.001 118.414 183.743 121.96C179.485 125.505 178.597 136.341 178.597 148.94C178.597 161.54 176.646 173.608 177.709 175.027C178.772 176.446 184.45 177.159 184.45 177.159Z" stroke="#263238" stroke-linecap="round" stroke-linejoin="round"/>
<path d="M200.214 126.2C199.258 124.415 198.087 122.754 196.729 121.253C195.08 119.477 188.877 118.414 185.857 121.96C184.739 123.264 183.948 125.547 183.393 128.537C184.45 130.82 186.515 133.23 190.544 133.321C194.204 133.405 197.635 129.896 200.214 126.2Z" fill="white" stroke="#263238" stroke-linecap="round" stroke-linejoin="round"/>
<path d="M191.371 179.992C190.669 180.778 190.159 181.716 189.882 182.733C189.605 183.75 189.569 184.817 189.777 185.851C190.49 189.396 195.986 183.187 200.045 181.768C204.104 180.348 200.045 178.748 197.919 179.104C195.793 179.46 191.371 179.992 191.371 179.992Z" fill="#F77F00" stroke="#263238" stroke-linecap="round" stroke-linejoin="round"/>
<path d="M195.986 184.437C195.986 184.437 192.966 185.5 192.084 183.193C191.202 180.886 191.371 179.998 191.371 179.998C191.371 179.998 197.943 178.935 199.362 178.579C200.782 178.222 197.23 184.081 195.986 184.437Z" fill="white" stroke="#263238" stroke-linecap="round" stroke-linejoin="round"/>
<path d="M195.636 118.771C194.856 125.545 194.676 132.374 195.098 139.18C195.811 150.36 197.943 175.915 197.055 179.648C196.167 183.38 195.986 184.444 195.986 184.444C195.986 184.444 195.811 184.619 200.069 181.78C204.327 178.941 211.605 176.277 213.206 175.921C214.807 175.565 216.045 172.194 215.332 168.468C214.619 164.741 213.961 156.992 213.961 156.992L229.707 152.691C229.707 152.691 219.24 133.363 217.627 128.374C216.015 123.385 211.95 123.053 208.93 123.053C205.91 123.053 196.904 120.54 195.636 118.771Z" fill="#F77F00" stroke="#263238" stroke-linecap="round" stroke-linejoin="round"/>
<path d="M213.846 156.635C213.846 156.635 212.318 134.209 212.318 130.663L213.846 156.635Z" fill="white"/>
<path d="M213.846 156.635C213.846 156.635 212.318 134.209 212.318 130.663" stroke="#263238" stroke-linecap="round" stroke-linejoin="round"/>
<path d="M215.157 154.793C215.157 154.793 215.332 150.36 221.904 147.545C228.475 144.73 233.084 149.321 233.615 152.335C234.147 155.349 233.084 161.032 227.575 160.145C222.067 159.257 216.045 158.169 215.157 154.793Z" fill="white" stroke="#263238" stroke-linecap="round" stroke-linejoin="round"/>
<path d="M185.519 120.365C185.519 120.365 177.528 125.155 172.031 126.755C166.535 128.356 161.558 128.882 160.845 130.657C160.133 132.433 155.699 163.14 155.699 163.14L168.48 161.54C168.48 161.54 169.011 172.545 167.948 174.139C166.885 175.734 169.011 176.628 170.968 177.159C172.925 177.691 185.525 178.754 185.525 178.754C185.722 178.729 185.912 178.659 186.079 178.55C186.245 178.441 186.385 178.295 186.487 178.124C186.59 177.953 186.652 177.761 186.669 177.563C186.687 177.364 186.659 177.164 186.588 176.978C186.231 175.383 183.036 173.251 183.036 172.37C183.036 171.488 184.105 158.526 185.344 148.584C186.582 138.642 186.938 123.216 185.519 120.365Z" fill="#F77F00" stroke="#263238" stroke-linecap="round" stroke-linejoin="round"/>
<path d="M168.48 154.793L168.836 137.935" stroke="#263238" stroke-linecap="round" stroke-linejoin="round"/>
<path d="M154.624 164.022C153.68 161.839 153.492 159.402 154.093 157.1C155.156 153.555 158.707 152.492 162.965 152.492C167.224 152.492 169.174 155.149 169.174 158.169C169.174 161.189 165.804 163.847 161.926 164.91C158.049 165.973 156.231 165.266 154.624 164.022Z" fill="white" stroke="#263238" stroke-linecap="round" stroke-linejoin="round"/>
<path d="M190.906 139.029C190.323 139.011 189.748 139.167 189.255 139.478C188.761 139.788 188.372 140.239 188.136 140.773C187.901 141.306 187.829 141.898 187.932 142.472C188.035 143.046 188.306 143.577 188.712 143.995C189.118 144.414 189.64 144.702 190.21 144.823C190.781 144.943 191.374 144.891 191.915 144.672C192.455 144.453 192.918 144.078 193.244 143.595C193.571 143.111 193.745 142.541 193.745 141.958C193.752 141.579 193.683 141.203 193.544 140.85C193.405 140.498 193.197 140.177 192.933 139.905C192.67 139.632 192.355 139.415 192.007 139.265C191.659 139.114 191.285 139.034 190.906 139.029ZM190.906 143.818C190.535 143.829 190.169 143.729 189.854 143.53C189.54 143.332 189.293 143.044 189.143 142.703C188.994 142.363 188.949 141.986 189.016 141.62C189.082 141.254 189.256 140.917 189.515 140.651C189.774 140.384 190.107 140.202 190.471 140.126C190.835 140.05 191.213 140.084 191.557 140.225C191.901 140.365 192.196 140.605 192.403 140.914C192.609 141.223 192.719 141.586 192.718 141.958C192.725 142.2 192.683 142.441 192.595 142.666C192.506 142.892 192.374 143.097 192.205 143.271C192.036 143.444 191.834 143.582 191.611 143.676C191.388 143.77 191.148 143.819 190.906 143.818Z" fill="white" stroke="#263238" stroke-linecap="round" stroke-linejoin="round"/>
<path d="M191.468 138.316H199.984V145.063C199.984 145.628 199.76 146.17 199.36 146.57C198.96 146.97 198.418 147.195 197.852 147.195H193.594C193.029 147.195 192.486 146.97 192.087 146.57C191.687 146.17 191.462 145.628 191.462 145.063V138.316H191.468Z" fill="white" stroke="#263238" stroke-linecap="round" stroke-linejoin="round"/>
<path d="M224.742 176.803C224.742 176.803 211.605 186.92 198.112 191.003C188.187 194.026 177.942 195.873 167.586 196.505C160.489 197.037 157.469 195.617 156.406 199.169C155.343 202.721 156.049 206.417 161.196 207.51C166.342 208.603 171.282 205.004 179.992 202.34C188.702 199.676 189.354 201.132 203.276 199.169C214.064 197.641 229.901 197.568 239.836 191.003C249.772 184.437 250.841 172.545 244.632 170.237C238.423 167.93 230.788 173.076 229.013 173.608" fill="#263238"/>
<path d="M224.742 176.803C224.742 176.803 211.605 186.92 198.112 191.003C188.187 194.026 177.942 195.873 167.586 196.505C160.489 197.037 157.469 195.617 156.406 199.169C155.343 202.721 156.049 206.417 161.196 207.51C166.342 208.603 171.282 205.004 179.992 202.34C188.702 199.676 189.354 201.132 203.276 199.169C214.064 197.641 229.901 197.568 239.836 191.003C249.772 184.437 250.841 172.545 244.632 170.237C238.423 167.93 230.788 173.076 229.013 173.608" stroke="#263238" stroke-linecap="round" stroke-linejoin="round"/>
<path d="M191.468 193.28C191.468 193.28 204.756 189.052 211.702 185.428C218.648 181.804 226.198 176.67 227.708 175.764" stroke="white" stroke-linecap="round" stroke-linejoin="round"/>
<path d="M167.592 196.505C160.495 197.037 157.475 195.617 156.412 199.169C155.349 202.721 156.056 206.417 161.202 207.51C166.348 208.603 171.282 205.004 179.992 202.34C181.689 201.821 183.085 201.458 184.329 201.192C182.728 199.223 182.124 196.33 181.913 194.844C176.205 195.811 171.47 196.215 167.592 196.505Z" fill="white"/>
<path opacity="0.4" d="M167.592 196.505C160.495 197.037 157.475 195.617 156.412 199.169C155.349 202.721 156.056 206.417 161.202 207.51C166.348 208.603 171.282 205.004 179.992 202.34C181.689 201.821 183.085 201.458 184.329 201.192C182.728 199.223 182.124 196.33 181.913 194.844C176.205 195.811 171.47 196.215 167.592 196.505Z" fill="black"/>
<path d="M167.592 196.505C160.495 197.037 157.475 195.617 156.412 199.169C155.349 202.721 156.056 206.417 161.202 207.51C166.348 208.603 171.282 205.004 179.992 202.34C181.689 201.821 183.085 201.458 184.329 201.192C182.728 199.223 182.124 196.33 181.913 194.844C176.205 195.811 171.47 196.215 167.592 196.505Z" stroke="#263238" stroke-linecap="round" stroke-linejoin="round"/>
<path d="M164.578 207.172C160.652 206.568 157.825 204.816 157.934 201.736C158.019 199.248 159.601 197.659 160.737 196.656C158.321 196.717 157.034 197.085 156.412 199.169C155.343 202.714 156.056 206.417 161.202 207.51C162.738 207.797 164.318 207.75 165.834 207.371L164.578 207.172Z" fill="white" stroke="#263238" stroke-linecap="round" stroke-linejoin="round"/>
<path d="M166.529 181.949C166.529 181.949 191.371 194.029 199.894 197.925C208.416 201.821 212.85 202.008 212.85 202.008L212.137 207.685C212.137 207.685 207.522 208.748 193.328 205.022C179.134 201.295 161.383 197.568 151.973 192.072C142.562 186.576 145.407 175.565 150.022 173.614C154.636 171.663 159.607 173.257 159.607 173.257" fill="#263238"/>
<path d="M166.529 181.949C166.529 181.949 191.371 194.029 199.894 197.925C208.416 201.821 212.85 202.008 212.85 202.008L212.137 207.685C212.137 207.685 207.522 208.748 193.328 205.022C179.134 201.295 161.383 197.568 151.973 192.072C142.562 186.576 145.407 175.565 150.022 173.614C154.636 171.663 159.607 173.257 159.607 173.257" stroke="#263238" stroke-linecap="round" stroke-linejoin="round"/>
<path d="M162.476 178.784C174.87 185.343 187.353 191.724 199.924 197.925" stroke="white" stroke-linecap="round" stroke-linejoin="round"/>
<path d="M212.85 202.008C212.85 202.008 222.435 200.939 226.868 199.876C231.302 198.813 234.322 198.281 235.928 201.827C237.535 205.372 235.216 208.573 229.713 209.636C223.118 210.917 212.143 207.685 212.143 207.685L212.85 202.008Z" fill="white"/>
<path opacity="0.4" d="M212.85 202.008C212.85 202.008 222.435 200.939 226.868 199.876C231.302 198.813 234.322 198.281 235.928 201.827C237.535 205.372 235.216 208.573 229.713 209.636C223.118 210.917 212.143 207.685 212.143 207.685L212.85 202.008Z" fill="black"/>
<path d="M212.85 202.008C212.85 202.008 222.435 200.939 226.868 199.876C231.302 198.813 234.322 198.281 235.928 201.827C237.535 205.372 235.216 208.573 229.713 209.636C223.118 210.917 212.143 207.685 212.143 207.685L212.85 202.008Z" stroke="#263238" stroke-linecap="round" stroke-linejoin="round"/>
<path d="M187.778 139.524C187.778 139.524 190.562 140.219 191.1 141.106C191.228 141.308 191.303 141.538 191.318 141.777C191.333 142.015 191.288 142.253 191.187 142.469C191.086 142.685 190.932 142.872 190.739 143.013C190.547 143.154 190.321 143.244 190.085 143.275C188.742 143.369 187.393 143.369 186.05 143.275C186.05 143.275 189.42 143.45 189.42 144.869C189.42 146.289 188.889 149.309 188.357 150.015C187.826 150.722 187.294 151.791 185.694 151.791H183.568C183.568 151.791 182.499 152.148 180.723 152.854C179.583 153.298 178.392 153.597 177.177 153.742C177.177 153.742 172.031 160.489 168.655 163.859C165.279 167.229 162.265 169.899 160.139 169.899C158.012 169.899 153.392 165.466 154.811 161.733C156.231 158 169.368 153.748 172.206 151.972C175.045 150.197 178.12 147.853 179.485 146.295C181.726 143.728 181.864 140.255 183.386 139.905C184.84 139.681 186.307 139.554 187.778 139.524Z" fill="white" stroke="#263238" stroke-linecap="round" stroke-linejoin="round"/>
<path d="M184.033 145.564C185.77 145.503 187.496 145.849 189.076 146.573" stroke="#263238" stroke-linecap="round" stroke-linejoin="round"/>
<path d="M184.033 148.034C184.033 148.034 187.349 147.605 188.502 148.759" stroke="#263238" stroke-linecap="round" stroke-linejoin="round"/>
<path d="M183.568 151.779L184.897 150.632C185.418 150.768 185.949 150.865 186.485 150.921" stroke="#263238" stroke-linecap="round" stroke-linejoin="round"/>
<path d="M188.647 142.544C187.821 142.905 186.946 143.144 186.05 143.251" stroke="#263238" stroke-linecap="round" stroke-linejoin="round"/>
<path d="M228.028 161.914C232.202 161.226 234.068 156.068 231.175 152.969C230.848 152.571 230.435 152.253 229.967 152.039C227.998 151.272 225.467 150.227 221.922 151.954C218.141 153.766 214.915 155.868 213.321 155.868C211.726 155.868 208.489 151.525 206.2 150.281C203.91 149.037 204.883 152.311 203.995 153.73C203.107 155.149 199.38 156.394 198.311 156.75C197.242 157.106 197.605 158.169 198.849 158.876C200.093 159.583 199.912 159.589 201.688 161.008C203.034 162.131 204.725 162.758 206.477 162.784C207.722 162.784 211.267 161.54 211.267 161.54C211.267 161.54 220.853 162.253 226.367 162.071C226.924 162.055 227.479 162.003 228.028 161.914Z" fill="white" stroke="#263238" stroke-linecap="round" stroke-linejoin="round"/>
<path d="M208.06 154.262C208.06 156.025 203.832 157.457 198.559 157.457C193.286 157.457 189.052 156.025 189.052 154.262C189.052 152.498 193.28 151.066 198.547 151.066C203.814 151.066 208.06 152.498 208.06 154.262Z" fill="white" stroke="#263238" stroke-linecap="round" stroke-linejoin="round"/>
<path d="M198.559 156.074C201.531 156.074 203.941 155.262 203.941 154.262C203.941 153.261 201.531 152.45 198.559 152.45C195.587 152.45 193.177 153.261 193.177 154.262C193.177 155.262 195.587 156.074 198.559 156.074Z" fill="white" stroke="#263238" stroke-width="0.5" stroke-linecap="round" stroke-linejoin="round"/>
<path d="M206.236 150.233C205.771 149.774 205.028 149.587 204.08 150.142C204.08 150.142 201.241 153.688 202.304 154.219C203.367 154.751 205.855 153.156 206.568 152.268" fill="white"/>
<path d="M206.236 150.233C205.771 149.774 205.028 149.587 204.08 150.142C204.08 150.142 201.241 153.688 202.304 154.219C203.367 154.751 205.855 153.156 206.568 152.268" stroke="#263238" stroke-linecap="round" stroke-linejoin="round"/>
<path d="M198.831 158.852C199.822 158.838 200.813 158.895 201.796 159.021C203.004 159.155 204.224 159.118 205.42 158.912" stroke="#263238" stroke-linecap="round" stroke-linejoin="round"/>
<path d="M200.921 160.362C202.676 160.806 204.48 161.027 206.29 161.02" stroke="#263238" stroke-linecap="round" stroke-linejoin="round"/>
<path d="M185.162 118.589C185.162 118.589 182.142 120.456 182.009 122.123C181.877 123.79 179.134 129.685 178.228 130.742C177.322 131.799 178.53 131.648 179.738 131.044C180.946 130.44 183.519 127.565 184.425 127.565C185.331 127.565 186.546 129.534 186.546 129.534C186.546 129.534 186.503 120.957 185.162 118.589Z" fill="white" stroke="#263238" stroke-linecap="round" stroke-linejoin="round"/>
<path d="M186.225 127.112C186.407 123.379 185.162 118.589 185.162 118.589C185.162 118.589 181.079 119.652 179.303 119.302C177.528 118.952 173.626 112.731 173.094 107.766C172.563 102.801 173.982 93.922 173.982 93.922C173.982 93.922 173.626 91.4335 182.499 88.9511C191.371 86.4686 194.579 88.0632 195.787 91.2584C196.995 94.4535 195.074 104.546 194.367 109.185C193.661 113.824 196.342 121.404 196.904 123.735" fill="white"/>
<path d="M186.225 127.112C186.407 123.379 185.162 118.589 185.162 118.589C185.162 118.589 181.079 119.652 179.303 119.302C177.528 118.952 173.626 112.731 173.094 107.766C172.563 102.801 173.982 93.922 173.982 93.922C173.982 93.922 173.626 91.4335 182.499 88.9511C191.371 86.4686 194.579 88.0632 195.787 91.2584C196.995 94.4535 195.074 104.546 194.367 109.185C193.661 113.824 196.342 121.404 196.904 123.735" stroke="#263238" stroke-linecap="round" stroke-linejoin="round"/>
<path d="M177.709 101.907C177.709 101.907 177.353 104.039 176.108 104.746C174.864 105.452 174.689 105.99 175.758 106.521C176.422 106.845 177.146 107.026 177.884 107.053" stroke="#263238" stroke-linecap="round" stroke-linejoin="round"/>
<path d="M175.39 109.892C176.382 110.295 177.447 110.488 178.518 110.46C180.469 110.46 183.03 109.004 183.03 109.004C183.03 109.004 181.78 113.123 179.654 114.011C177.528 114.899 175.39 109.892 175.39 109.892Z" fill="#263238" stroke="#263238" stroke-linecap="round" stroke-linejoin="round"/>
<path d="M181.967 100.131L180.928 102.366C180.928 102.366 181.967 102.263 184.45 102.082" stroke="#263238" stroke-linecap="round" stroke-linejoin="round"/>
<path d="M175.045 100.487L174.399 102.221C175.019 102.367 175.653 102.44 176.29 102.438" stroke="#263238" stroke-linecap="round" stroke-linejoin="round"/>
<path d="M181.436 96.2293C181.436 96.2293 183.918 95.3414 185.162 98.3554" stroke="#263238" stroke-linecap="round" stroke-linejoin="round"/>
<path d="M176.821 96.5796C176.821 96.5796 175.22 96.2293 174.87 98.7117" stroke="#263238" stroke-linecap="round" stroke-linejoin="round"/>
<path d="M181.593 112.139C180.27 112.289 179.02 112.824 177.999 113.679C178.219 113.878 178.489 114.014 178.781 114.073C179.072 114.131 179.374 114.11 179.654 114.011C180.47 113.591 181.144 112.94 181.593 112.139Z" fill="white" stroke="#263238" stroke-linecap="round" stroke-linejoin="round"/>
<path d="M191.468 82.0836C187.772 81.2259 182.511 80.8031 182.511 81.7997C182.513 82.0019 182.567 82.2002 182.666 82.3765C182.765 82.5527 182.907 82.7012 183.079 82.8084C182.136 82.452 179.926 81.8843 175.541 82.0836C169.283 82.3675 168.86 83.7869 169.851 84.0707C171.138 84.3325 172.438 84.52 173.747 84.6325C173.445 84.7472 173.143 84.868 172.847 85.0009C171.089 85.6834 167.538 87.278 167.012 89.1927C166.956 89.3901 166.956 89.5992 167.012 89.7967C166.666 90.3873 166.499 91.0655 166.53 91.7493C166.561 92.4331 166.789 93.0933 167.187 93.6502C169.658 97.238 172.575 94.0971 172.575 94.0971C172.575 94.0971 171.228 96.1206 175.716 94.5441C179.129 93.2357 182.433 91.6583 185.597 89.8269H185.742C186.89 90.2618 187.911 90.9503 188.207 91.9771C188.913 94.4596 187.494 96.5856 188.207 98.0171C188.919 99.4486 190.514 99.2553 190.514 99.968C190.514 100.681 189.445 100.856 190.157 101.563C190.87 102.269 192.821 102.632 194.059 102.275C194.582 102.138 195.093 101.96 195.587 101.744C195.66 101.236 195.732 100.723 195.793 100.21C196.342 99.0802 197.985 95.5166 198.456 92.3576C199 88.48 195.159 82.9352 191.468 82.0836Z" fill="#263238" stroke="#263238" stroke-linecap="round" stroke-linejoin="round"/>
<path d="M178.307 89.3256C178.307 89.3256 178.772 91.4758 182.148 90.0926C185.525 88.7095 191.365 86.7163 195.358 88.4075" stroke="white" stroke-width="0.5" stroke-linecap="round" stroke-linejoin="round"/>
<path d="M188.182 91.9711C188.182 91.9711 192.9 90.2497 195.201 92.859" stroke="white" stroke-width="0.5" stroke-linecap="round" stroke-linejoin="round"/>
<path d="M191.728 103.683C191.728 103.683 193.147 99.956 195.279 99.956C197.411 99.956 196.524 104.927 196.167 106.165C195.811 107.403 194.035 110.393 192.797 107.941C192.797 107.941 192.664 112.996 189.173 115.43" fill="white"/>
<path d="M191.728 103.683C191.728 103.683 193.147 99.956 195.279 99.956C197.411 99.956 196.524 104.927 196.167 106.165C195.811 107.403 194.035 110.393 192.797 107.941C192.797 107.941 192.664 112.996 189.173 115.43" stroke="#263238" stroke-linecap="round" stroke-linejoin="round"/>
<path d="M194.863 116.826C194.863 116.826 195.014 124.678 194.712 126.206C194.561 127.414 194.612 128.638 194.863 129.83L196.983 125.602C196.983 125.602 201.972 130.434 202.576 129.534C203.18 128.634 199.248 125.451 198.952 122.425C198.656 119.399 195.316 113.649 194.863 116.826Z" fill="white" stroke="#263238" stroke-linecap="round" stroke-linejoin="round"/>
<path d="M235.922 201.827C234.582 198.849 232.232 198.746 228.892 199.411V199.61C228.892 199.61 234.026 200.214 234.328 203.234C234.63 206.254 233.621 207.963 227.986 209.274C226.536 209.612 225.28 209.648 224.271 209.878C226.086 210.02 227.912 209.939 229.707 209.636C235.21 208.573 237.517 205.36 235.922 201.827Z" fill="white" stroke="#263238" stroke-linecap="round" stroke-linejoin="round"/>
<path d="M167.532 120.558C166.184 121.786 164.616 122.747 162.911 123.391C160.054 124.472 156.237 126.315 153.851 126.472C151.465 126.629 152.081 123.125 154.503 120.909C155.573 119.919 156.828 119.151 158.197 118.652C159.566 118.152 161.02 117.929 162.476 117.997C164.959 118.197 169.44 118.185 167.532 120.558Z" fill="#F77F00" stroke="#263238" stroke-linecap="round" stroke-linejoin="round"/>
<path d="M154.624 121.73C154.624 121.73 156.768 121.501 159.305 123.627C159.311 123.627 156.496 119.846 154.624 121.73Z" fill="white"/>
<path d="M156.931 120.256C156.931 120.256 159.075 120.027 161.612 122.147C161.612 122.147 158.798 118.384 156.931 120.256Z" fill="white"/>
<path d="M158.937 119.199C158.937 119.199 161.081 118.964 163.618 121.09C163.618 121.09 160.809 117.309 158.937 119.199Z" fill="white"/>
<path d="M123.433 89.5188C123.433 89.5188 119 86.3237 109.058 87.9182C102.414 88.9934 96.9239 96.2414 98.6332 103.048C99.5694 106.751 103.61 110.707 101.605 114.718C100.01 117.913 92.3757 117.738 90.4248 128.006C88.4739 138.274 95.5709 145.757 105.332 146.289C115.092 146.82 120.595 139.186 122.37 133.333C124.146 127.48 126.985 118.42 127.166 110.079C127.347 101.738 126.278 93.2455 123.433 89.5188Z" fill="#263238" stroke="#263238" stroke-linecap="round" stroke-linejoin="round"/>
<path d="M122.008 91.4033C117.46 90.2835 112.659 90.8567 108.503 93.016C101.659 96.64 104.48 105.295 107.295 109.928C110.109 114.561 106.691 117.375 100.252 123.415C93.8133 129.455 92.7986 136.909 96.8273 141.535" stroke="white" stroke-width="0.5" stroke-linecap="round" stroke-linejoin="round"/>
<path d="M121.791 94.224C121.791 94.224 110.919 93.8193 110.315 100.669C109.711 107.518 118.571 112.543 118.771 116.771C118.97 120.999 115.147 125.433 111.728 128.453" stroke="white" stroke-width="0.5" stroke-linecap="round" stroke-linejoin="round"/>
<path d="M135.507 119.87C135.507 119.87 140.122 120.933 141.716 121.464C143.311 121.996 145.268 124.128 145.443 127.323C145.618 130.518 146.863 143.148 147.376 147.02C147.889 150.891 146.313 158.2 144.356 160.308C142.399 162.416 139.741 164.391 137.434 161.371C135.127 158.351 137.078 156.225 137.966 152.142C138.854 148.059 139.385 134.752 137.253 130.138C135.121 125.523 133.375 120.045 135.507 119.87Z" fill="#F77F00" stroke="#263238" stroke-linecap="round" stroke-linejoin="round"/>
<path d="M143.849 155.186C143.849 155.186 144.199 156.074 141.717 156.605C139.234 157.137 136.746 157.668 136.039 159.8C135.332 161.932 136.57 163.527 140.297 164.058C144.024 164.59 147.219 161.932 147.75 159.975C148.282 158.018 151.459 155.669 151.459 155.669C151.459 155.669 145.975 153.766 143.849 155.186Z" fill="white" stroke="#263238" stroke-linecap="round" stroke-linejoin="round"/>
<path d="M142.248 129.256C142.248 131.563 144.555 136.709 144.38 142.544C144.205 148.379 137.815 157.807 135.507 162.953C133.2 168.099 139.941 179.992 134.263 191.528C128.586 203.065 117.955 203.24 109.415 200.588C100.874 197.937 93.2636 192.779 91.4879 184.969C89.7121 177.159 92.3757 171.306 97.1715 166.692C101.967 162.077 106.576 161.721 107.288 158.169C108.001 154.618 108.708 157.638 106.751 151.785C104.794 145.932 102.674 132.971 103.205 129.063C103.737 125.155 110.453 122.322 115.092 120.371C118.269 118.974 121.352 117.372 124.321 115.575C124.321 115.575 127.873 114.337 129.649 115.044C131.424 115.751 132.844 117.708 135.507 119.84C138.171 121.972 139.766 122.141 139.766 122.141" fill="#F77F00"/>
<path d="M142.248 129.256C142.248 131.563 144.555 136.709 144.38 142.544C144.205 148.379 137.815 157.807 135.507 162.953C133.2 168.099 139.941 179.992 134.263 191.528C128.586 203.065 117.955 203.24 109.415 200.588C100.874 197.937 93.2636 192.779 91.4879 184.969C89.7121 177.159 92.3757 171.306 97.1715 166.692C101.967 162.077 106.576 161.721 107.289 158.169C108.001 154.618 108.708 157.638 106.751 151.785C104.794 145.932 102.674 132.971 103.205 129.063C103.737 125.155 110.453 122.322 115.092 120.371C118.269 118.974 121.352 117.372 124.321 115.575C124.321 115.575 127.873 114.337 129.649 115.044C131.424 115.751 132.844 117.708 135.507 119.84C138.171 121.972 139.766 122.141 139.766 122.141" stroke="#263238" stroke-linecap="round" stroke-linejoin="round"/>
<path d="M103.157 163.467C103.157 163.467 109.197 162.192 116.88 166.021" stroke="#263238" stroke-linecap="round" stroke-linejoin="round"/>
<path d="M110.176 160.598C110.176 160.598 116.88 161.552 120.389 164.747" stroke="#263238" stroke-linecap="round" stroke-linejoin="round"/>
<path d="M135.507 119.87C132.844 117.738 131.424 115.787 129.649 115.074C127.873 114.361 124.321 115.606 124.321 115.606C121.916 117.059 119.439 118.39 116.898 119.592C118.286 124.024 120.183 128.281 122.552 132.276C126.78 139.379 129.473 144.7 131.068 141.861C132.433 139.445 135.085 125.511 135.616 119.942L135.507 119.87Z" fill="white" stroke="#263238" stroke-linecap="round" stroke-linejoin="round"/>
<path d="M131.068 141.874C131.817 140.545 132.953 135.743 133.913 130.766C130.005 133.303 124.853 132.143 121.869 131.116C122.087 131.509 122.316 131.895 122.552 132.288C126.84 139.391 129.474 144.712 131.068 141.874Z" fill="white" stroke="#263238" stroke-linecap="round" stroke-linejoin="round"/>
<path d="M113.673 123.415C110.907 123.84 108.287 124.937 106.044 126.61C102.136 129.449 102.318 133.357 103.737 137.084C105.156 140.811 109.946 152.703 112.797 155.892C115.648 159.082 117.593 161.576 119.012 160.863C120.432 160.151 136.22 144.875 140.841 139.566C143.359 136.734 145.728 133.772 147.938 130.694C147.938 130.694 148.119 130.337 149.538 130.162C150.958 129.987 152.909 127.323 152.909 127.323C152.909 127.323 152.021 129.093 153.621 129.093C155.222 129.093 156.104 128.561 156.46 127.498C156.817 126.435 158.592 124.66 157.88 123.772C157.167 122.884 155.216 122.352 155.216 122.352C155.216 122.352 157.704 122.171 158.943 122.709C160.181 123.246 161.606 123.772 161.606 123.24C161.606 122.709 160.012 120.577 158.411 120.045C156.81 119.513 153.265 119.157 151.67 120.401C150.076 121.646 147.231 125.904 147.231 125.904C146.7 126.61 145.28 128.743 145.28 128.743C145.28 128.743 135.87 137.44 131.793 139.747C127.716 142.055 120.256 145.6 120.256 145.6C120.56 144.746 120.621 143.824 120.432 142.937C120.245 142.242 119.945 141.583 119.544 140.986C119.435 140.043 119.376 139.096 119.369 138.147C119.369 136.727 117.061 134.595 117.061 132.107" fill="#F77F00"/>
<path d="M113.673 123.415C110.907 123.84 108.287 124.937 106.044 126.61C102.136 129.449 102.318 133.357 103.737 137.084C105.156 140.811 109.946 152.703 112.797 155.892C115.648 159.082 117.593 161.576 119.012 160.863C120.432 160.151 136.22 144.875 140.841 139.566C143.359 136.734 145.728 133.772 147.938 130.694C147.938 130.694 148.119 130.337 149.538 130.162C150.958 129.987 152.909 127.323 152.909 127.323C152.909 127.323 152.021 129.093 153.621 129.093C155.222 129.093 156.104 128.561 156.46 127.498C156.817 126.435 158.592 124.66 157.88 123.772C157.167 122.884 155.216 122.352 155.216 122.352C155.216 122.352 157.704 122.171 158.943 122.709C160.181 123.246 161.606 123.772 161.606 123.24C161.606 122.709 160.012 120.577 158.411 120.045C156.81 119.513 153.265 119.157 151.67 120.401C150.076 121.646 147.231 125.904 147.231 125.904C146.7 126.61 145.28 128.743 145.28 128.743C145.28 128.743 135.87 137.44 131.793 139.747C127.716 142.055 120.256 145.6 120.256 145.6C120.56 144.746 120.621 143.824 120.432 142.937C120.245 142.242 119.945 141.583 119.544 140.986C119.435 140.043 119.376 139.096 119.369 138.147C119.369 136.727 117.061 134.595 117.061 132.107" stroke="#263238" stroke-linecap="round" stroke-linejoin="round"/>
<path d="M120.244 145.6C120.244 145.6 115.273 147.376 113.498 150.746L120.244 145.6Z" fill="white"/>
<path d="M120.244 145.6C120.244 145.6 115.273 147.376 113.498 150.746" stroke="#263238" stroke-linecap="round" stroke-linejoin="round"/>
<path d="M112.948 147.376C112.948 147.376 114.367 145.069 118.094 144.894" stroke="#263238" stroke-linecap="round" stroke-linejoin="round"/>
<path d="M153.609 129.093C155.204 129.093 156.092 128.561 156.448 127.498C156.804 126.435 158.58 124.66 157.867 123.772C157.155 122.884 155.204 122.352 155.204 122.352C155.204 122.352 157.692 122.171 158.93 122.709C160.169 123.246 161.594 123.772 161.594 123.24C161.594 122.709 160 120.577 158.399 120.045C156.798 119.513 153.253 119.157 151.658 120.401C150.064 121.646 147.219 125.904 147.219 125.904C146.687 126.61 145.268 128.743 145.268 128.743C145.268 128.743 135.858 137.44 131.781 139.747C130.373 140.539 128.573 141.481 126.81 142.369C126.457 143.255 126.291 144.204 126.321 145.156C126.351 146.109 126.577 147.046 126.985 147.908C127.354 148.516 127.842 149.044 128.42 149.46C128.998 149.875 129.654 150.169 130.349 150.324C134.577 146.192 138.805 141.898 140.829 139.548C143.347 136.716 145.716 133.754 147.926 130.675C147.926 130.675 148.107 130.319 149.526 130.144C150.946 129.969 152.897 127.305 152.897 127.305C152.897 127.305 152.009 129.093 153.609 129.093Z" fill="white" stroke="#263238" stroke-linecap="round" stroke-linejoin="round"/>
<path d="M153.609 124.895C153.768 124.833 153.939 124.806 154.109 124.816C154.279 124.827 154.445 124.875 154.595 124.957C154.745 125.039 154.875 125.152 154.976 125.29C155.077 125.427 155.147 125.585 155.18 125.753C155.47 127.039 155.47 128.465 155.041 128.773" stroke="#263238" stroke-linecap="round" stroke-linejoin="round"/>
<path d="M154.02 123.325C154.02 123.325 156.738 123.609 156.738 124.895C156.722 125.771 156.619 126.643 156.43 127.498" stroke="#263238" stroke-linecap="round" stroke-linejoin="round"/>
<path d="M136.927 185.887C136.927 185.887 141.892 194.947 138.703 202.394C135.513 209.842 127.698 210.736 116.355 209.141C105.011 207.546 89.555 204.17 83.1345 203.457C78.2377 202.817 73.2594 203.555 68.7593 205.59C65.0326 207.184 58.8235 207.54 56.8666 207.897C54.9096 208.253 55.8035 205.414 56.6914 205.414C57.5793 205.414 58.6423 203.814 60.4181 203.282C62.1938 202.751 66.4581 200.619 67.5151 198.493C68.5721 196.366 70.3599 193.697 72.6672 193.522C74.9745 193.346 76.0375 195.829 79.2327 196.892C82.4278 197.955 95.0273 198.493 101.418 198.493C107.808 198.493 112.773 197.073 119.538 192.809C126.302 188.545 131.599 182.692 136.927 185.887Z" fill="white" stroke="#263238" stroke-linecap="round" stroke-linejoin="round"/>
<path d="M119.532 192.809C112.785 197.073 107.82 198.493 101.412 198.493C100.264 198.493 98.9172 198.493 97.4676 198.438C97.003 199.479 96.6585 200.569 96.4408 201.688C96.1734 203.066 96.327 204.493 96.8817 205.783C103.212 206.961 110.333 208.295 116.318 209.141C127.68 210.736 135.489 209.848 138.666 202.394C141.843 194.941 136.891 185.887 136.891 185.887C131.6 182.692 126.278 188.551 119.532 192.809Z" fill="#263238" stroke="#263238" stroke-linecap="round" stroke-linejoin="round"/>
<path d="M95.9273 172.581C95.9273 172.581 105.156 168.317 120.087 168.317C135.018 168.317 146.18 178.077 141.566 185.356C136.951 192.634 127.009 193.346 116.717 196.717C106.425 200.087 74.8296 208.253 71.1029 209.673C67.3762 211.092 59.7477 215.531 58.3283 217.126C56.9089 218.72 53.3574 219.79 53.001 218.545C52.6447 217.301 54.9519 215.175 54.9519 215.175C54.9519 215.175 55.4835 211.267 57.4404 209.491C59.3974 207.716 60.9859 208.072 62.4053 204.345C63.8247 200.619 63.6495 198.305 67.5514 198.493C71.4532 198.68 70.7465 201.15 72.166 201.688C73.5854 202.225 78.2059 201.15 82.8205 199.024C87.4351 196.898 95.0636 192.277 95.0636 192.277C95.0636 192.277 88.8545 184.117 91.5121 176.308" fill="#F77F00"/>
<path d="M95.9273 172.581C95.9273 172.581 105.156 168.317 120.087 168.317C135.018 168.317 146.18 178.077 141.566 185.356C136.951 192.634 127.009 193.346 116.717 196.717C106.425 200.087 74.8296 208.253 71.1029 209.673C67.3762 211.092 59.7477 215.531 58.3283 217.126C56.9089 218.72 53.3574 219.79 53.001 218.545C52.6447 217.301 54.952 215.175 54.952 215.175C54.952 215.175 55.4835 211.267 57.4404 209.491C59.3974 207.716 60.9859 208.072 62.4053 204.345C63.8247 200.619 63.6495 198.305 67.5514 198.493C71.4532 198.68 70.7466 201.15 72.166 201.688C73.5854 202.225 78.2059 201.15 82.8205 199.024C87.4351 196.898 95.0636 192.277 95.0636 192.277C95.0636 192.277 88.8545 184.117 91.5121 176.308" stroke="#263238" stroke-linecap="round" stroke-linejoin="round"/>
<path d="M95.0394 192.277C95.0394 192.277 87.4109 196.892 82.7963 199.024C78.1818 201.156 73.5672 202.219 72.1418 201.688C70.7163 201.156 71.4351 198.668 67.5272 198.493C63.6193 198.317 63.8005 200.619 62.3811 204.345C60.9617 208.072 59.3611 207.722 57.4163 209.491C55.4714 211.261 54.9278 215.175 54.9278 215.175C54.9278 215.175 52.6205 217.301 52.9769 218.545C53.3332 219.79 56.8787 218.72 58.3041 217.126C59.7296 215.531 67.3641 211.086 71.0787 209.673C73.386 208.797 86.3358 205.342 98.3191 202.032C96.8651 198.913 95.765 195.641 95.0394 192.277Z" fill="white" stroke="#263238" stroke-linecap="round" stroke-linejoin="round"/>
<path d="M141.541 185.356C146.156 178.077 134.97 168.317 120.063 168.317C116.915 168.322 113.77 168.524 110.647 168.921C98.9232 172.641 94.2543 183.737 92.7805 188.412C93.4056 189.777 94.1622 191.077 95.0395 192.296C94.3025 195.787 94.9223 199.428 96.773 202.479C104.734 200.286 112.477 198.112 116.705 196.735C126.985 193.346 136.927 192.634 141.541 185.356Z" fill="#263238" stroke="#263238" stroke-linecap="round" stroke-linejoin="round"/>
<path d="M95.0394 192.277C98.3275 190.651 101.473 188.752 104.444 186.6C108.708 183.405 116.161 175.42 125.741 175.239" stroke="white" stroke-linecap="round" stroke-linejoin="round"/>
<path d="M101.472 201.736C101.472 201.736 129.86 194.186 136.202 190.26" stroke="white" stroke-linecap="round" stroke-linejoin="round"/>
<path d="M139.596 152.812C140.64 153.592 141.759 154.266 142.937 154.823C144.314 155.373 144.507 156.841 146.077 157.759C147.648 158.677 150.203 157.759 152.365 156.291C154.527 154.823 159.83 152.812 159.83 152.812C158.922 152.986 158.005 153.107 157.082 153.174C156.297 153.174 153.15 154.092 151.779 154.461C150.408 154.829 150.988 152.993 150.988 152.993L149.617 153.174L148.409 154.986L146.077 152.812L143.921 152.444L145.884 154.642L142.151 152.83C142.151 152.83 139.796 152.238 139.596 152.812Z" fill="white" stroke="#263238" stroke-linecap="round" stroke-linejoin="round"/>
<path d="M164.457 150.692C164.342 153.023 157.614 154.588 149.436 154.183C141.257 153.778 134.71 151.562 134.825 149.23C134.94 146.899 141.668 145.334 149.852 145.739C158.037 146.144 164.572 148.361 164.457 150.692Z" fill="white" stroke="#263238" stroke-linecap="round" stroke-linejoin="round"/>
<path d="M159.987 150.475C159.909 152.099 155.21 153.193 149.496 152.891C143.782 152.589 139.228 151.079 139.294 149.43C139.361 147.781 144.072 146.712 149.786 147.014C155.5 147.316 160.06 148.844 159.987 150.475Z" fill="white" stroke="#263238" stroke-width="0.5" stroke-linecap="round" stroke-linejoin="round"/>
<path d="M141.717 156.605C139.234 157.137 136.746 157.668 136.039 159.8C135.332 161.932 136.57 163.527 140.297 164.058C141.327 164.189 142.373 164.102 143.368 163.804C144.363 163.505 145.283 163.001 146.071 162.325C144.205 163.008 141.36 163.599 139.79 161.636C137.621 158.924 141.717 156.605 141.717 156.605Z" fill="#F77F00" stroke="#263238" stroke-linecap="round" stroke-linejoin="round"/>
<path d="M129.763 124.617C129.926 123.056 130.223 121.513 130.651 120.003C131.364 117.514 133.671 115.388 133.671 115.388C133.671 115.388 138.642 117.164 140.237 117.164C141.831 117.164 142.9 116.451 143.963 114.144C144.727 112.309 145.322 110.409 145.739 108.466C146.375 108.191 146.972 107.833 147.515 107.403C148.403 106.691 148.222 105.628 146.983 104.208C145.745 102.789 146.271 101.72 146.096 98.1681C145.92 94.6166 143.963 91.0651 143.963 91.0651C143.963 91.0651 139.735 86.6317 132.071 89.2893C124.406 91.9469 122.491 99.9379 122.666 104.202C122.842 108.466 124.086 110.768 123.729 114.138C123.373 117.508 119.501 122.123 119.501 122.123" fill="white"/>
<path d="M129.763 124.617C129.926 123.056 130.223 121.512 130.651 120.003C131.364 117.514 133.671 115.388 133.671 115.388C133.671 115.388 138.642 117.164 140.237 117.164C141.831 117.164 142.9 116.451 143.963 114.144C144.727 112.309 145.322 110.409 145.739 108.466C146.375 108.191 146.972 107.833 147.515 107.403C148.403 106.691 148.222 105.628 146.983 104.208C145.745 102.789 146.271 101.72 146.096 98.1681C145.92 94.6166 143.963 91.0651 143.963 91.0651C143.963 91.0651 139.735 86.6317 132.071 89.2893C124.406 91.9469 122.491 99.9379 122.666 104.202C122.842 108.466 124.086 110.768 123.729 114.138C123.373 117.508 119.501 122.123 119.501 122.123" stroke="#263238" stroke-linecap="round" stroke-linejoin="round"/>
<path d="M144.356 102.94C144.356 103.514 144.163 103.973 143.927 103.973C143.692 103.973 143.492 103.514 143.492 102.94C143.492 102.366 143.686 101.913 143.927 101.913C144.169 101.913 144.356 102.372 144.356 102.94Z" fill="#263238"/>
<path d="M145.111 99.7869C145.111 99.7869 144.894 99.1285 143.698 99.4607C143.375 99.5287 143.074 99.6743 142.82 99.8847C142.567 100.095 142.368 100.364 142.242 100.669" fill="white"/>
<path d="M145.111 99.7869C145.111 99.7869 144.894 99.1285 143.698 99.4607C143.375 99.5287 143.074 99.6743 142.82 99.8847C142.567 100.095 142.368 100.364 142.242 100.669" stroke="#263238" stroke-linecap="round" stroke-linejoin="round"/>
<path d="M142.037 110.46C142.037 110.46 143.063 111.48 144.229 111.064" stroke="#263238" stroke-linecap="round" stroke-linejoin="round"/>
<path d="M144.555 83.4668C142.061 84.868 135.048 84.554 135.048 84.554L135.133 84.717C131.977 84.6826 128.859 85.4011 126.037 86.8129C120.359 89.8329 117.877 94.6226 118.789 101.013C119.701 107.403 121.809 111.661 124.998 111.837C128.187 112.012 129.612 103.139 129.612 103.139C129.612 103.139 132.451 104.027 133.339 102.789C133.891 102.007 134.366 101.173 134.759 100.3C137.178 99.6576 139.505 98.7055 141.68 97.4675L141.771 97.6426C146.446 96.5494 148.161 92.5026 148.161 88.5826C148.161 84.6627 147.044 82.0655 144.555 83.4668Z" fill="#263238" stroke="#263238" stroke-linecap="round" stroke-linejoin="round"/>
<path d="M141.94 88.3833C141.94 88.3833 141.723 92.412 135.079 96.036C128.435 99.66 123.808 99.4607 122.799 99.2553" stroke="white" stroke-width="0.5" stroke-linecap="round" stroke-linejoin="round"/>
<path d="M122.395 95.2327C122.395 95.2327 131.068 98.0473 137.108 91.808" stroke="white" stroke-width="0.5" stroke-linecap="round" stroke-linejoin="round"/>
<path d="M131.72 104.74C131.72 104.74 130.651 100.832 127.456 101.901C124.261 102.97 126.925 107.754 128.344 109.354C129.763 110.955 130.651 108.998 130.651 108.998C130.829 110.487 131.521 111.867 132.608 112.9" fill="white"/>
<path d="M131.72 104.74C131.72 104.74 130.651 100.832 127.456 101.901C124.261 102.97 126.925 107.754 128.344 109.354C129.763 110.955 130.651 108.998 130.651 108.998C130.829 110.487 131.521 111.867 132.608 112.9" stroke="#263238" stroke-linecap="round" stroke-linejoin="round"/>
<path d="M110.749 218.243C110.749 220.007 106.521 221.438 101.255 221.438C95.9876 221.438 91.7596 220.007 91.7596 218.243C91.7596 216.48 95.9876 215.048 101.255 215.048C106.521 215.048 110.749 216.48 110.749 218.243Z" fill="white" stroke="#263238" stroke-linecap="round" stroke-linejoin="round"/>
<path d="M106.636 218.243C106.636 219.246 104.22 220.055 101.255 220.055C98.2889 220.055 95.8729 219.246 95.8729 218.243C95.8729 217.241 98.2889 216.431 101.255 216.431C104.22 216.431 106.636 217.247 106.636 218.243Z" fill="white" stroke="#263238" stroke-width="0.5" stroke-linecap="round" stroke-linejoin="round"/>
<path d="M96.5312 210.579C95.9483 210.561 95.3733 210.717 94.8798 211.028C94.3863 211.338 93.9968 211.789 93.7611 212.323C93.5254 212.856 93.4543 213.448 93.5569 214.022C93.6595 214.596 93.9311 215.126 94.337 215.545C94.7428 215.964 95.2644 216.252 95.835 216.373C96.4056 216.493 96.9992 216.441 97.5397 216.222C98.0803 216.003 98.5433 215.628 98.8693 215.144C99.1954 214.661 99.3698 214.091 99.37 213.508C99.3764 213.129 99.308 212.753 99.1687 212.4C99.0295 212.048 98.822 211.726 98.5583 211.454C98.2946 211.182 97.9799 210.965 97.632 210.815C97.2842 210.664 96.9101 210.584 96.5312 210.579ZM96.5312 215.368C96.1597 215.379 95.7934 215.279 95.4793 215.08C95.1652 214.881 94.9175 214.593 94.7681 214.253C94.6186 213.913 94.5742 213.536 94.6404 213.17C94.7067 212.804 94.8806 212.467 95.1399 212.2C95.3992 211.934 95.7322 211.751 96.096 211.676C96.4599 211.6 96.8381 211.634 97.1822 211.775C97.5263 211.915 97.8206 212.155 98.0275 212.464C98.2343 212.773 98.3443 213.136 98.3432 213.508C98.3497 213.75 98.3076 213.991 98.2194 214.216C98.1313 214.442 97.9988 214.647 97.8299 214.821C97.661 214.994 97.4591 215.132 97.236 215.226C97.013 215.32 96.7733 215.368 96.5312 215.368Z" fill="white" stroke="#263238" stroke-linecap="round" stroke-linejoin="round"/>
<path d="M97.0628 209.872H105.579V216.619C105.579 217.184 105.355 217.726 104.955 218.126C104.555 218.526 104.013 218.751 103.447 218.751H99.1889C98.6234 218.751 98.0811 218.526 97.6812 218.126C97.2814 217.726 97.0568 217.184 97.0568 216.619V209.872H97.0628Z" fill="white" stroke="#263238" stroke-linecap="round" stroke-linejoin="round"/>
<path d="M149.049 230.076C158.166 230.076 165.556 227.334 165.556 223.951C165.556 220.569 158.166 217.827 149.049 217.827C139.932 217.827 132.542 220.569 132.542 223.951C132.542 227.334 139.932 230.076 149.049 230.076Z" fill="white" stroke="#263238" stroke-linecap="round" stroke-linejoin="round"/>
<path d="M160.356 223.951C160.356 226.27 155.294 228.179 149.049 228.179C142.804 228.179 137.736 226.301 137.736 223.951C137.736 221.602 142.804 219.759 149.049 219.759C155.294 219.759 160.356 221.668 160.356 223.951Z" fill="white" stroke="#263238" stroke-width="0.5" stroke-linecap="round" stroke-linejoin="round"/>
<path d="M154.793 220.49C152.829 221.759 150.642 222.645 148.348 223.099C144.513 223.867 139.288 225.401 136.22 225.093C133.152 224.785 134.686 220.49 138.219 218.189C139.786 217.155 141.544 216.446 143.39 216.103C145.235 215.759 147.131 215.789 148.964 216.19C152.033 216.957 157.71 217.881 154.793 220.49Z" fill="#F77F00" stroke="#263238" stroke-linecap="round" stroke-linejoin="round"/>
<path d="M138.219 219.252C138.219 219.252 140.98 219.403 143.746 222.628C143.752 222.64 140.98 217.265 138.219 219.252Z" fill="white"/>
<path d="M141.439 217.881C141.439 217.881 144.205 218.032 146.965 221.257C146.965 221.257 144.205 215.888 141.439 217.881Z" fill="white"/>
<path d="M144.205 216.957C144.205 216.957 146.965 217.114 149.732 220.339C149.732 220.339 146.965 214.964 144.205 216.957Z" fill="white"/>
<path d="M162.627 223.099C160.661 224.369 158.472 225.255 156.176 225.709C152.341 226.476 147.116 228.01 144.048 227.708C140.98 227.406 142.514 223.099 146.047 220.798C147.614 219.765 149.372 219.056 151.218 218.712C153.063 218.369 154.958 218.398 156.792 218.799C159.861 219.572 165.538 220.49 162.627 223.099Z" fill="#F77F00" stroke="#263238" stroke-linecap="round" stroke-linejoin="round"/>
<path d="M146.047 221.873C146.047 221.873 148.807 222.024 151.574 225.25C151.604 225.25 148.807 219.856 146.047 221.873Z" fill="white"/>
<path d="M149.272 220.49C149.272 220.49 152.033 220.641 154.793 223.867C154.793 223.867 152.033 218.497 149.272 220.49Z" fill="white"/>
<path d="M152.033 219.572C152.033 219.572 154.793 219.723 157.559 222.948C157.559 222.948 154.793 217.573 152.033 219.572Z" fill="white"/>
<path d="M172.176 215.386H169.603C168.651 215.386 167.735 215.018 167.047 214.36C166.359 213.702 165.95 212.804 165.907 211.853L165.212 195.998H176.573L175.873 211.853C175.831 212.805 175.423 213.704 174.734 214.362C174.045 215.02 173.129 215.387 172.176 215.386Z" fill="white" stroke="#263238" stroke-linecap="round" stroke-linejoin="round"/>
<path d="M166.45 203.065L166.783 210.693C166.826 211.645 167.234 212.543 167.923 213.201C168.611 213.859 169.527 214.226 170.479 214.227H171.3C172.253 214.226 173.168 213.859 173.857 213.201C174.545 212.543 174.953 211.645 174.997 210.693L175.329 203.065H166.45Z" fill="#F77F00"/>
<path d="M199.537 219.753C208.654 219.753 216.045 217.011 216.045 213.629C216.045 210.246 208.654 207.504 199.537 207.504C190.421 207.504 183.03 210.246 183.03 213.629C183.03 217.011 190.421 219.753 199.537 219.753Z" fill="white" stroke="#263238" stroke-linecap="round" stroke-linejoin="round"/>
<path d="M210.85 213.629C210.85 215.948 205.783 217.827 199.537 217.827C193.292 217.827 188.23 215.948 188.23 213.629C188.23 211.309 193.292 209.437 199.537 209.437C205.783 209.437 210.85 211.315 210.85 213.629Z" fill="white" stroke="#263238" stroke-width="0.5" stroke-linecap="round" stroke-linejoin="round"/>
<path d="M209.588 212.656C207.657 213.903 205.507 214.773 203.252 215.217C199.477 215.972 194.349 217.482 191.329 217.18C188.309 216.878 189.825 212.656 193.292 210.391C194.832 209.375 196.561 208.678 198.375 208.341C200.19 208.003 202.053 208.033 203.856 208.428C206.852 209.183 212.439 210.089 209.588 212.656Z" fill="#F77F00" stroke="#263238" stroke-linecap="round" stroke-linejoin="round"/>
<path d="M193.28 211.448C193.28 211.448 195.998 211.599 198.716 214.764C198.716 214.764 195.992 209.485 193.28 211.448Z" fill="white"/>
<path d="M196.445 210.089C196.445 210.089 199.157 210.24 201.881 213.411C201.875 213.411 199.157 208.126 196.445 210.089Z" fill="white"/>
<path d="M199.157 209.183C199.157 209.183 201.875 209.334 204.593 212.505C204.593 212.505 201.875 207.22 199.157 209.183Z" fill="white"/>
<path d="M83.4063 215.495H80.8272C79.8744 215.493 78.9589 215.124 78.2706 214.465C77.5824 213.806 77.1742 212.907 77.1308 211.955L76.4362 196.106H87.7974L87.1028 211.955C87.0594 212.907 86.6512 213.806 85.9629 214.465C85.2747 215.124 84.3592 215.493 83.4063 215.495Z" fill="white" stroke="#263238" stroke-linecap="round" stroke-linejoin="round"/>
<path d="M77.6743 203.367L78.0126 210.995C78.0546 211.947 78.4625 212.846 79.1512 213.504C79.84 214.163 80.7563 214.53 81.709 214.529H82.5244C83.4772 214.53 84.3935 214.163 85.0822 213.504C85.7709 212.846 86.1789 211.947 86.2209 210.995L86.5592 203.367H77.6743Z" fill="#F77F00"/>
<defs>
<filter id="filter0_d" x="32.7366" y="179.987" width="245.412" height="69.4664" filterUnits="userSpaceOnUse" color-interpolation-filters="sRGB">
<feFlood flood-opacity="0" result="BackgroundImageFix"/>
<feColorMatrix in="SourceAlpha" type="matrix" values="0 0 0 0 0 0 0 0 0 0 0 0 0 0 0 0 0 0 127 0"/>
<feOffset dy="4"/>
<feGaussianBlur stdDeviation="2"/>
<feColorMatrix type="matrix" values="0 0 0 0 0 0 0 0 0 0 0 0 0 0 0 0 0 0 0.25 0"/>
<feBlend mode="normal" in2="BackgroundImageFix" result="effect1_dropShadow"/>
<feBlend mode="normal" in="SourceGraphic" in2="effect1_dropShadow" result="shape"/>
</filter>
</defs>
</svg>
